<svg width="201" height="201" viewBox="0 0 201 201" fill="none" xmlns="http://www.w3.org/2000/svg">
<rect x="0.0366211" y="0.531738" width="200" height="200" rx="42" fill="#9A8B86"/>
<path d="M48.4642 79.4779C51.9347 90.4641 58.8568 100.29 70.9848 96.5425C75.4168 95.173 78.497 92.9309 80.4417 90.2174C80.4892 90.1488 80.5368 90.0811 80.5845 90.0143C83.5845 85.5143 83.8786 79.3356 82.7421 74.3076C81.8269 70.2583 75.4393 68.1669 68.9748 67.1876C65.1728 66.6116 61.3443 66.4202 58.5867 66.4415C56.3164 66.7839 53.0828 67.8496 50.7705 69.9334C48.468 72.0084 47.079 75.0928 48.4642 79.4779Z" fill="url(#paint0_linear_145_11)"/>
<path d="M125.584 102.014C122.303 92.2786 118.856 89.3219 109.827 85.5683C102.605 82.5654 85.8345 84.7643 80.5845 90.0143C80.5368 90.0811 80.4892 90.1488 80.4417 90.2174C77.6872 94.1945 75.3678 101.069 76.3839 106.514C76.7266 108.351 77.4487 110.025 78.6614 111.37C79.7243 112.549 81.2748 113.878 83.1573 115.238C86.1801 117.422 90.0589 119.689 94.1493 121.554C97.0981 122.899 99.4069 124.036 102.334 124.782C107.303 126.05 112.642 126.194 115.674 124.331C116.572 123.778 117.36 123.142 118.084 122.487C118.948 121.707 119.723 120.9 120.488 120.179C123.334 116.264 123.883 114.151 125.584 109.514C126.334 107.471 126.206 103.858 125.584 102.014Z" fill="url(#paint1_linear_145_11)"/>
<path d="M145.084 97.5145C134.537 98.2688 127.455 104.417 125.584 109.514C123.883 114.151 123.334 116.264 120.488 120.179C118.084 124.514 122.584 136.514 130.313 139.387C131.134 139.692 133.564 140.798 134.584 141.014C144.181 143.052 163.262 143.319 171.334 137.264C180.334 130.514 181.745 125.389 177.472 113.526C172.787 100.519 157.417 96.6325 145.084 97.5145Z" fill="url(#paint2_linear_145_11)"/>
<path d="M79.3472 51.8005C78.6871 47.4241 61.0843 41.2645 72.396 36.224C79.5649 33.0295 79.9802 45.3108 79.3472 51.8005Z" fill="#6A5555"/>
<path d="M56.2983 55.2771C57.8135 49.2937 44.2458 47.5037 47.6283 41.8781C50.3344 37.3776 62.5844 41.2644 56.2983 55.2771Z" fill="#6A5555"/>
<path d="M58.5867 66.4415L58.5636 63.4416L58.3503 63.4432L58.1393 63.4751L58.5867 66.4415ZM48.4642 79.4779L51.3249 78.5743L48.4642 79.4779ZM70.9848 96.5425L71.8705 99.4088L70.9848 96.5425ZM82.7421 74.3076L85.6683 73.6462L82.7421 74.3076ZM78.6614 111.37L76.433 113.379L78.6614 111.37ZM115.674 124.331L117.245 126.886L115.674 124.331ZM125.584 102.014L128.427 101.056L125.584 102.014ZM109.827 85.5683L108.676 88.3384L109.827 85.5683ZM125.584 109.514L122.768 108.481L125.584 109.514ZM145.084 97.5145L144.87 94.5221L145.084 97.5145ZM177.472 113.526L174.649 114.542L177.472 113.526ZM171.334 137.264L173.134 139.664L171.334 137.264ZM130.313 139.387L131.358 136.575L130.313 139.387ZM72.396 36.224L73.617 38.9642L72.396 36.224ZM50.7705 69.9334L52.7788 72.162L50.7705 69.9334ZM56.2983 55.2771L53.3901 54.5406L56.2983 55.2771ZM47.6283 41.8781L50.1994 43.424L47.6283 41.8781ZM64.0845 114.764L61.4603 113.31L64.0845 114.764ZM45.1358 147.918C43.564 148.442 42.7145 150.141 43.2384 151.713C43.7624 153.285 45.4613 154.134 47.0332 153.61L45.1358 147.918ZM70.9848 129.764L67.9848 129.764L70.9848 129.764ZM70.9848 152.264L68.8987 150.108L70.9848 152.264ZM59.9027 156.257C58.3798 156.91 57.6743 158.673 58.327 160.196C58.9797 161.719 60.7433 162.424 62.2662 161.772L59.9027 156.257ZM94.1493 121.554L95.3942 118.825L94.1493 121.554ZM88.0844 137.385L91.0654 137.048L88.0844 137.385ZM90.3344 152.264L93.2287 153.054L90.3344 152.264ZM81.3404 161.877C80.022 162.881 79.7666 164.763 80.7701 166.081C81.7735 167.4 83.6558 167.655 84.9742 166.652L81.3404 161.877ZM105.786 146.249C107.435 146.414 108.905 145.211 109.07 143.563C109.234 141.914 108.032 140.444 106.383 140.279L105.786 146.249ZM117.212 144.635C118.797 145.117 120.473 144.222 120.955 142.637C121.437 141.052 120.542 139.376 118.957 138.894L117.212 144.635ZM143.584 167.264C145.241 167.264 146.584 165.921 146.584 164.264C146.584 162.608 145.241 161.264 143.584 161.264L143.584 167.264ZM150.972 161.888C152.559 162.364 154.232 161.463 154.708 159.876C155.184 158.289 154.283 156.617 152.696 156.141L150.972 161.888ZM45.6036 80.3816C47.4073 86.0916 50.2108 91.8744 54.4548 95.7505C58.8846 99.7963 64.7441 101.611 71.8705 99.4088L70.0991 93.6762C65.0975 95.2218 61.432 93.9971 58.5011 91.3202C55.3844 88.4737 52.9916 83.8504 51.3249 78.5743L45.6036 80.3816ZM83.0806 91.6785C86.694 86.2584 86.9119 79.148 85.6683 73.6462L79.8159 74.969C80.8453 79.5232 80.4749 84.7703 78.0883 88.3502L83.0806 91.6785ZM128.427 101.056C126.721 95.9956 124.856 92.3298 121.993 89.4376C119.156 86.5716 115.576 84.7094 110.979 82.7982L108.676 88.3384C113.107 90.1808 115.764 91.6738 117.729 93.6584C119.667 95.6169 121.166 98.2974 122.742 102.973L128.427 101.056ZM110.979 82.7982C106.62 80.986 99.9739 80.87 94.0373 81.7273C90.9954 82.1666 87.9697 82.8846 85.3109 83.8693C82.702 84.8355 80.2124 86.1438 78.4632 87.893L82.7058 92.1357C83.5815 91.2599 85.1569 90.3246 87.3947 89.4958C89.5826 88.6855 92.1852 88.057 94.8949 87.6657C100.462 86.8618 105.812 87.1478 108.676 88.3384L110.979 82.7982ZM128.401 110.548C128.954 109.039 129.117 107.213 129.099 105.654C129.08 104.084 128.873 102.38 128.427 101.056L122.742 102.973C122.917 103.492 123.085 104.516 123.099 105.724C123.113 106.944 122.964 107.946 122.768 108.481L128.401 110.548ZM128.401 110.548C129.792 106.758 135.701 101.193 145.298 100.507L144.87 94.5221C133.373 95.3444 125.118 102.076 122.768 108.481L128.401 110.548ZM145.298 100.507C151.11 100.091 157.548 100.813 162.992 103.081C168.396 105.333 172.662 109.024 174.649 114.542L180.294 112.509C177.597 105.02 171.835 100.265 165.3 97.5425C158.805 94.8364 151.392 94.0557 144.87 94.5221L145.298 100.507ZM174.649 114.542C176.744 120.358 177.18 123.87 176.478 126.554C175.796 129.162 173.869 131.613 169.534 134.864L173.134 139.664C177.799 136.166 181.078 132.679 182.283 128.072C183.468 123.539 182.473 118.556 180.294 112.509L174.649 114.542ZM122.914 121.943C126.053 117.627 126.734 115.089 128.401 110.548L122.768 108.481C121.031 113.213 120.616 114.902 118.062 118.415L122.914 121.943ZM131.358 136.575C128.526 135.522 125.941 132.595 124.327 129.08C123.543 127.371 123.066 125.681 122.903 124.263C122.73 122.762 122.947 121.931 123.112 121.634L117.864 118.725C116.827 120.595 116.705 122.89 116.942 124.948C117.188 127.088 117.868 129.391 118.874 131.583C120.842 135.87 124.371 140.379 129.267 142.199L131.358 136.575ZM85.6683 73.6462C84.8914 70.2089 81.9474 68.1297 79.1864 66.8678C76.3028 65.5499 72.778 64.7295 69.4242 64.2214L68.5254 70.1537C71.6361 70.625 74.5373 71.34 76.6924 72.3249C78.9701 73.3659 79.6776 74.357 79.8159 74.969L85.6683 73.6462ZM69.4242 64.2214C65.4449 63.6185 61.4565 63.4193 58.5636 63.4416L58.6099 69.4414C61.232 69.4212 64.9008 69.6046 68.5254 70.1537L69.4242 64.2214ZM71.094 69.311C73.0036 67.4052 75.8331 64.3226 78.1433 61.2236C79.2944 59.6796 80.3776 58.0505 81.1494 56.5079C81.8486 55.1104 82.594 53.2119 82.3137 51.353L76.3808 52.2479C76.3644 52.1396 76.4051 52.581 75.7835 53.8233C75.2346 54.9205 74.3813 56.2312 73.3329 57.6376C71.2443 60.4392 68.6235 63.2997 66.8556 65.0641L71.094 69.311ZM82.3137 51.353C82.1023 49.9518 81.2993 48.8448 80.6529 48.106C79.9604 47.3145 79.1053 46.5678 78.2828 45.9001C76.4223 44.3896 74.8953 43.3646 73.3707 42.015C72.6784 41.4021 72.1915 40.8879 71.888 40.4648C71.5742 40.0275 71.6071 39.8965 71.6132 40.0143C71.6476 40.6807 70.9793 40.1396 73.617 38.9642L71.1749 33.4837C68.1568 34.8286 65.4471 36.9477 65.6212 40.3234C65.6971 41.7958 66.3452 43.0318 67.0128 43.9624C67.6907 44.9072 68.5513 45.7619 69.3937 46.5076C70.9383 47.8749 73.2289 49.5254 74.501 50.5582C75.2449 51.1622 75.7849 51.6541 76.1372 52.0568C76.5357 52.5122 76.4271 52.555 76.3808 52.2479L82.3137 51.353ZM73.617 38.9642C74.1902 38.7088 74.4951 38.6982 74.595 38.7043C74.6608 38.7083 74.692 38.7178 74.7582 38.7691C75.0069 38.9617 75.491 39.6121 75.897 41.1476C76.682 44.1162 76.6657 48.3896 76.3614 51.5092L82.3331 52.0917C82.6617 48.7216 82.7543 43.6096 81.6976 39.6137C81.1829 37.667 80.2585 35.4404 78.4329 34.026C76.3167 32.3865 73.715 32.3519 71.1749 33.4837L73.617 38.9642ZM58.1393 63.4751C55.5131 63.8712 51.6544 65.0984 48.7621 67.7048L52.7788 72.162C54.5112 70.6008 57.1198 69.6967 59.0342 69.4079L58.1393 63.4751ZM48.7621 67.7048C47.2829 69.038 46.0026 70.7842 45.3552 72.9969C44.7037 75.2235 44.7575 77.7033 45.6036 80.3816L51.3249 78.5743C50.7857 76.8675 50.8414 75.6125 51.1137 74.6819C51.3901 73.7373 51.9556 72.9039 52.7788 72.162L48.7621 67.7048ZM53.4263 71.3287C55.0682 68.2036 57.9351 61.0339 59.2065 56.0136L53.3901 54.5406C52.2371 59.0937 49.5418 65.8218 48.1147 68.5381L53.4263 71.3287ZM59.2065 56.0136C59.9224 53.1866 58.7199 50.9513 57.3183 49.4228C56.0238 48.0111 54.2278 46.8354 52.9551 45.9662C51.4574 44.9432 50.5988 44.2887 50.1873 43.7282C50.0333 43.5184 50.0754 43.4909 50.0837 43.6023C50.0935 43.7349 50.0321 43.7022 50.1994 43.424L45.0573 40.3322C44.3789 41.4604 44.0016 42.7142 44.1 44.0449C44.1969 45.3543 44.7322 46.4364 45.3508 47.279C46.4846 48.8233 48.289 50.0451 49.571 50.9207C51.0781 51.9501 52.1785 52.6954 52.8961 53.4779C53.5066 54.1437 53.4318 54.3759 53.3901 54.5406L59.2065 56.0136ZM50.1994 43.424C50.2199 43.3899 50.4099 43.1251 51.1125 43.1007C51.7964 43.0771 52.6713 43.3255 53.4245 43.9478C54.6553 44.9648 56.3582 47.814 53.5611 54.0492L59.0355 56.505C62.5245 48.7275 61.2455 42.6269 57.2463 39.3225C55.3844 37.7841 53.0823 37.0289 50.9048 37.1043C48.7458 37.1791 46.3898 38.1161 45.0573 40.3322L50.1994 43.424ZM73.4348 107.065C73.8561 109.322 74.7753 111.54 76.433 113.379L80.8898 109.362C80.122 108.51 79.5971 107.379 79.333 105.964L73.4348 107.065ZM75.509 103.645C73.7585 104.178 71.0636 105.248 68.4519 106.783C65.9076 108.278 63.0508 110.44 61.4603 113.31L66.7086 116.218C67.5182 114.757 69.2612 113.266 71.4917 111.956C73.6547 110.685 75.9095 109.795 77.2588 109.384L75.509 103.645ZM61.4603 113.31C59.7791 116.345 58.0158 121.51 56.6965 126.201C56.0248 128.59 55.4444 130.941 55.0291 132.955C54.6295 134.893 54.3345 136.742 54.3345 138.014L60.3345 138.014C60.3345 137.412 60.5082 136.094 60.9055 134.167C61.2871 132.316 61.8316 130.104 62.4724 127.826C63.7781 123.183 65.3899 118.599 66.7086 116.218L61.4603 113.31ZM54.3345 138.014C54.3345 138.178 54.2131 138.804 53.5928 139.91C53.0186 140.934 52.1721 142.095 51.1547 143.24C49.0282 145.632 46.642 147.416 45.1358 147.918L47.0332 153.61C50.0269 152.612 53.2657 149.896 55.6392 147.226C56.8719 145.839 57.9941 144.329 58.8262 142.845C59.612 141.443 60.3345 139.726 60.3345 138.014L54.3345 138.014ZM76.433 113.379C77.6899 114.773 79.4238 116.241 81.4003 117.67L84.9143 112.806C83.1259 111.514 81.7587 110.326 80.8898 109.362L76.433 113.379ZM81.6769 112.629C79.4579 113.888 76.1785 116.157 73.4093 118.976C70.7515 121.682 67.9848 125.478 67.9848 129.764L73.9848 129.764C73.9848 127.954 75.2757 125.638 77.6898 123.18C79.9924 120.836 82.7992 118.89 84.6377 117.847L81.6769 112.629ZM67.9848 129.764C67.9848 131.939 68.3139 134.227 68.6821 136.37C69.0678 138.615 69.4747 140.6 69.7583 142.605C70.0374 144.578 70.1378 146.221 69.9704 147.546C69.8079 148.832 69.4221 149.602 68.8987 150.108L73.071 154.42C74.8727 152.677 75.6496 150.462 75.9231 148.298C76.1916 146.173 76.0013 143.901 75.6992 141.764C75.4014 139.659 74.9364 137.339 74.5955 135.354C74.237 133.267 73.9848 131.4 73.9848 129.764L67.9848 129.764ZM68.8987 150.108C65.4925 153.404 61.3905 155.619 59.9027 156.257L62.2662 161.772C64.2784 160.909 69.0365 158.324 73.071 154.42L68.8987 150.108ZM81.4003 117.67C84.5942 119.977 88.6462 122.342 92.9044 124.284L95.3942 118.825C91.4715 117.036 87.766 114.867 84.9143 112.806L81.4003 117.67ZM91.7385 119.769C90.4914 121.453 88.7099 124.269 87.3032 127.402C85.9396 130.439 84.7099 134.244 85.1034 137.722L91.0654 137.048C90.8589 135.222 91.5259 132.645 92.7768 129.86C93.9847 127.17 95.5356 124.723 96.56 123.34L91.7385 119.769ZM85.1034 137.722C85.5396 141.578 86.9912 143.948 87.5521 145.339C87.8336 146.037 88.0088 146.671 88.0396 147.502C88.072 148.376 87.9493 149.608 87.4401 151.475L93.2287 153.054C93.8445 150.796 94.0969 148.934 94.0355 147.28C93.9726 145.584 93.5853 144.257 93.1167 143.095C92.1776 140.766 91.3792 139.822 91.0654 137.048L85.1034 137.722ZM87.4401 151.475C85.8148 157.435 82.4609 161.024 81.3404 161.877L84.9742 166.652C87.1385 165.004 91.254 160.294 93.2287 153.054L87.4401 151.475ZM92.9044 124.284C95.7508 125.582 98.3442 126.861 101.593 127.689L103.076 121.875C100.47 121.211 98.4454 120.216 95.3942 118.825L92.9044 124.284ZM101.593 127.689C104.282 128.375 107.128 128.774 109.78 128.73C112.377 128.687 115.082 128.216 117.245 126.886L114.103 121.775C113.234 122.309 111.754 122.697 109.681 122.731C107.663 122.764 105.355 122.457 103.076 121.875L101.593 127.689ZM99.4478 123.965C98.8993 125.904 97.8857 130.66 98.0233 135.159C98.0916 137.389 98.4484 139.872 99.5362 141.949C100.708 144.186 102.75 145.946 105.786 146.249L106.383 140.279C105.669 140.208 105.242 139.912 104.851 139.165C104.377 138.259 104.077 136.831 104.021 134.975C103.908 131.304 104.77 127.195 105.221 125.599L99.4478 123.965ZM117.245 126.886C118.351 126.206 119.289 125.443 120.096 124.713L116.073 120.261C115.431 120.841 114.793 121.35 114.103 121.775L117.245 126.886ZM120.096 124.713C120.935 123.955 121.98 122.895 122.545 122.363L118.431 117.996C117.465 118.906 116.962 119.458 116.073 120.261L120.096 124.713ZM115.502 120.961C114.876 122.019 114.263 123.807 113.771 125.644C113.251 127.581 112.777 129.911 112.53 132.229C112.288 134.503 112.241 136.981 112.715 139.113C113.173 141.168 114.342 143.762 117.212 144.635L118.957 138.894C119.202 138.969 118.858 139.094 118.572 137.809C118.303 136.602 118.283 134.87 118.496 132.864C118.705 130.903 119.114 128.882 119.566 127.199C120.044 125.416 120.489 124.315 120.667 124.014L115.502 120.961ZM169.534 134.864C166.244 137.332 160.224 138.75 153.344 139.18C146.607 139.6 139.712 139.036 135.207 138.08L133.961 143.949C139.053 145.03 146.497 145.618 153.718 145.168C160.795 144.726 168.352 143.251 173.134 139.664L169.534 134.864ZM135.207 138.08C135.209 138.08 135.195 138.077 135.162 138.068C135.13 138.06 135.087 138.047 135.033 138.03C134.923 137.996 134.786 137.95 134.622 137.89C134.293 137.772 133.911 137.621 133.507 137.456C132.796 137.166 131.819 136.746 131.358 136.575L129.267 142.199C129.627 142.333 130.276 142.618 131.241 143.012C132.013 143.327 133.138 143.774 133.961 143.949L135.207 138.08ZM131.811 139.871C130.676 142.624 126.855 150.953 132.127 158.485L137.042 155.044C133.914 150.575 135.993 145.469 137.358 142.158L131.811 139.871ZM132.127 158.485C134.383 161.707 136.549 163.844 138.442 165.202C140.229 166.484 142.049 167.264 143.584 167.264L143.584 161.264C143.869 161.264 143.29 161.295 141.939 160.326C140.695 159.434 138.986 157.821 137.042 155.044L132.127 158.485ZM143.618 141.319C143.21 144.04 142.993 148.259 143.731 152.148C144.43 155.837 146.255 160.472 150.972 161.888L152.696 156.141C151.414 155.756 150.239 154.267 149.626 151.031C149.05 147.995 149.209 144.489 149.551 142.209L143.618 141.319ZM71.8705 99.4088C76.8244 97.878 80.495 95.293 82.8801 91.9649L78.0032 88.4698C76.499 90.5688 74.0092 92.468 70.0991 93.6762L71.8705 99.4088ZM82.9079 91.9255C82.9473 91.8687 82.9865 91.8128 83.0257 91.758L78.1433 88.2707C78.087 88.3495 78.031 88.429 77.9755 88.5093L82.9079 91.9255ZM77.9754 88.5093C76.3865 90.8035 74.9838 93.8312 74.1064 97.0192C73.2328 100.193 72.8172 103.755 73.4348 107.065L79.333 105.964C78.9344 103.828 79.1705 101.23 79.8913 98.6113C80.6082 96.0065 81.7424 93.6084 82.908 91.9254L77.9754 88.5093Z" fill="#4F3E3E"/>
<defs>
<linearGradient id="paint0_linear_145_11" x1="47.011" y1="77.9878" x2="80.928" y2="97.9237" gradientUnits="userSpaceOnUse">
<stop offset="0.153469" stop-color="#655050"/>
<stop offset="1" stop-color="#5D3A3A"/>
</linearGradient>
<linearGradient id="paint1_linear_145_11" x1="94.9237" y1="99.6379" x2="119.484" y2="153.053" gradientUnits="userSpaceOnUse">
<stop stop-color="#6A5555"/>
<stop offset="1" stop-color="#4B1F1F"/>
</linearGradient>
<linearGradient id="paint2_linear_145_11" x1="142.084" y1="107.264" x2="160.834" y2="154.514" gradientUnits="userSpaceOnUse">
<stop stop-color="#6A5555"/>
<stop offset="1" stop-color="#4E2B2B"/>
</linearGradient>
</defs>
</svg>
