<svg width="105" height="105" viewBox="0 0 105 105" fill="none" xmlns="http://www.w3.org/2000/svg">
<path d="M13.0866 38.4756C15.4002 45.7997 20.015 52.3504 28.1003 49.852C31.055 48.939 33.1084 47.4443 34.4049 45.6353C34.4365 45.5896 34.4683 45.5445 34.5001 45.4999C36.5001 42.4999 36.6962 38.3807 35.9385 35.0287C35.3283 32.3292 31.07 30.935 26.7603 30.2821C24.2257 29.8981 21.6733 29.7705 19.8349 29.7847C18.3214 30.013 16.1656 30.7234 14.6241 32.1126C13.0891 33.4959 12.1631 35.5522 13.0866 38.4756Z" fill="url(#paint0_linear_145_12)"/>
<path d="M64.5001 53.4999C62.3122 47.0094 60.0142 45.0383 53.9953 42.5359C49.1802 40.534 38.0001 41.9999 34.5001 45.4999C34.4683 45.5445 34.4365 45.5896 34.4049 45.6353C32.5686 48.2867 31.0223 52.8696 31.6997 56.4999C31.9282 57.7242 32.4096 58.8402 33.218 59.7371C33.9266 60.5233 34.9603 61.4088 36.2153 62.3156C38.2305 63.7717 40.8163 65.2829 43.5433 66.5266C45.5092 67.4232 47.0484 68.1808 49.0001 68.6786C52.3121 69.5234 55.872 69.6198 57.8931 68.3774C58.492 68.0092 59.0171 67.585 59.5001 67.1486C60.076 66.6282 60.5921 66.0905 61.1024 65.6098C63.0001 62.9999 63.3656 61.5912 64.5001 58.4999C65.0001 57.1375 64.9143 54.7288 64.5001 53.4999Z" fill="url(#paint1_linear_145_12)"/>
<path d="M77.5 50.5C70.4685 51.0029 65.7472 55.1016 64.5001 58.4999C63.3656 61.5912 63.0001 62.9999 61.1024 65.6098C59.5001 68.4999 62.5001 76.4999 67.6522 78.4149C68.1997 78.6184 69.82 79.3556 70.5001 79.5C76.8977 80.8582 89.6185 81.0361 95 77C101 72.5 101.941 69.083 99.0918 61.174C95.9684 52.5029 85.7221 49.912 77.5 50.5Z" fill="url(#paint2_linear_145_12)"/>
<path d="M33.6752 20.024C33.2352 17.1064 21.5 13 29.0411 9.63968C33.8204 7.51002 34.0972 15.6975 33.6752 20.024Z" fill="#6A5555"/>
<path d="M18.3093 22.3417C19.3195 18.3528 10.2743 17.1595 12.5293 13.4091C14.3334 10.4088 22.5001 12.9999 18.3093 22.3417Z" fill="#6A5555"/>
<path d="M19.8349 29.7847L19.8195 27.7847L19.6773 27.7858L19.5366 27.8071L19.8349 29.7847ZM13.0866 38.4756L14.9937 37.8732L13.0866 38.4756ZM28.1003 49.852L28.6908 51.7629L28.1003 49.852ZM35.9385 35.0287L37.8893 34.5878L35.9385 35.0287ZM33.218 59.7371L31.7324 61.0762L33.218 59.7371ZM57.8931 68.3774L58.9405 70.0812L57.8931 68.3774ZM64.5001 53.4999L66.3953 52.8611L64.5001 53.4999ZM53.9953 42.5359L53.2275 44.3826L53.9953 42.5359ZM64.5001 58.4999L62.6225 57.8109L64.5001 58.4999ZM77.5 50.5L77.3573 48.5051L77.5 50.5ZM99.0918 61.174L97.2101 61.8518L99.0918 61.174ZM95 77L96.2 78.6L95 77ZM67.6522 78.4149L68.349 76.5403L67.6522 78.4149ZM29.0411 9.63968L29.8551 11.4665L29.0411 9.63968ZM14.6241 32.1126L15.963 33.5984L14.6241 32.1126ZM18.3093 22.3417L16.3705 21.8508L18.3093 22.3417ZM12.5293 13.4091L14.2433 14.4397L12.5293 13.4091ZM23.5001 61.9999L21.7506 61.0307L23.5001 61.9999ZM10.8676 84.1025C9.81974 84.4518 9.25342 85.5845 9.60271 86.6324C9.95201 87.6802 11.0846 88.2466 12.1325 87.8973L10.8676 84.1025ZM28.1003 71.9999L26.1003 71.9999L28.1003 71.9999ZM28.1003 86.9999L26.7095 85.5627L28.1003 86.9999ZM20.7122 89.6616C19.697 90.0967 19.2266 91.2725 19.6618 92.2878C20.0969 93.303 21.2726 93.7733 22.2879 93.3382L20.7122 89.6616ZM43.5433 66.5266L44.3732 64.7069L43.5433 66.5266ZM39.5001 77.0802L41.4874 76.8554L39.5001 77.0802ZM41.0001 86.9999L42.9296 87.5262L41.0001 86.9999ZM35.004 93.4084C34.1251 94.0774 33.9549 95.3322 34.6238 96.2112C35.2928 97.0902 36.5476 97.2604 37.4266 96.5914L35.004 93.4084ZM51.3011 82.99C52.4001 83.0999 53.3802 82.298 53.4901 81.1989C53.6 80.0998 52.7981 79.1198 51.6991 79.0098L51.3011 82.99ZM58.9182 81.9134C59.975 82.2348 61.0922 81.6385 61.4136 80.5817C61.7349 79.5249 61.1387 78.4078 60.0819 78.0864L58.9182 81.9134ZM76.5001 96.9999C77.6046 96.9999 78.5001 96.1045 78.5 94.9999C78.5001 93.8954 77.6046 92.9999 76.5 92.9999L76.5001 96.9999ZM81.4254 93.4156C82.4833 93.733 83.5983 93.1326 83.9157 92.0746C84.2331 91.0166 83.6327 89.9017 82.5748 89.5843L81.4254 93.4156ZM11.1795 39.0781C12.382 42.8847 14.251 46.74 17.0803 49.324C20.0335 52.0212 23.9399 53.2309 28.6908 51.7629L27.5099 47.9412C24.1754 48.9715 21.7317 48.1551 19.7778 46.3705C17.7 44.4728 16.1048 41.3906 14.9937 37.8732L11.1795 39.0781ZM36.1642 46.6093C38.5731 42.9959 38.7183 38.2557 37.8893 34.5878L33.9877 35.4697C34.674 38.5058 34.4271 42.0039 32.836 44.3905L36.1642 46.6093ZM66.3953 52.8611C65.2581 49.4874 64.0142 47.0436 62.1058 45.1154C60.2147 43.2047 57.8278 41.9633 54.7631 40.6891L53.2275 44.3826C56.1818 45.6109 57.9533 46.6062 59.2629 47.9293C60.5552 49.235 61.5542 51.0219 62.6049 54.1388L66.3953 52.8611ZM54.7631 40.6891C51.8572 39.481 47.4264 39.4037 43.4686 39.9752C41.4407 40.2681 39.4235 40.7467 37.651 41.4032C35.9118 42.0474 34.252 42.9195 33.0859 44.0857L35.9143 46.9141C36.4981 46.3303 37.5484 45.7067 39.0403 45.1542C40.4989 44.614 42.2339 44.195 44.0404 43.9342C47.7515 43.3982 51.3183 43.5889 53.2275 44.3826L54.7631 40.6891ZM66.3776 59.189C66.7467 58.1832 66.8548 56.9655 66.8428 55.9267C66.8307 54.8797 66.6927 53.7434 66.3953 52.8611L62.6049 54.1388C62.7217 54.4853 62.8337 55.1678 62.8431 55.973C62.8525 56.7863 62.7534 57.4542 62.6225 57.8109L66.3776 59.189ZM66.3776 59.189C67.305 56.6621 71.2445 52.9525 77.6427 52.4949L77.3573 48.5051C69.6925 49.0533 64.1894 53.5412 62.6225 57.8109L66.3776 59.189ZM77.6427 52.4949C81.5172 52.2178 85.8093 52.6989 89.4387 54.211C93.0413 55.712 95.8851 58.1733 97.2101 61.8518L100.973 60.4963C99.1751 55.5037 95.334 52.3339 90.9771 50.5187C86.647 48.7146 81.7049 48.1942 77.3573 48.5051L77.6427 52.4949ZM97.2101 61.8518C98.6067 65.729 98.8971 68.0702 98.4292 69.8594C97.9745 71.5982 96.6899 73.2326 93.8 75.4L96.2 78.6C99.3101 76.2674 101.496 73.9433 102.299 70.8714C103.089 67.8498 102.426 64.528 100.973 60.4963L97.2101 61.8518ZM62.7199 66.786C64.8126 63.9081 65.2666 62.2165 66.3776 59.189L62.6225 57.8109C61.4647 60.9659 61.1876 62.0918 59.4848 64.4336L62.7199 66.786ZM68.349 76.5403C66.4609 75.8384 64.7376 73.8869 63.662 71.5437C63.1392 70.4046 62.821 69.2779 62.7122 68.3321C62.5971 67.3316 62.7418 66.7775 62.8515 66.5795L59.3532 64.6401C58.6618 65.8871 58.5806 67.4168 58.7384 68.7891C58.9025 70.2159 59.3558 71.7508 60.0267 73.2124C61.3386 76.0705 63.6914 79.0764 66.9554 80.2896L68.349 76.5403ZM37.8893 34.5878C37.3713 32.2963 35.4087 30.9101 33.5681 30.0689C31.6456 29.1903 29.2958 28.6434 27.0599 28.3046L26.4607 32.2595C28.5345 32.5737 30.4686 33.0503 31.9054 33.707C33.4239 34.401 33.8955 35.0617 33.9877 35.4697L37.8893 34.5878ZM27.0599 28.3046C24.407 27.9027 21.7481 27.7699 19.8195 27.7847L19.8504 31.7846C21.5984 31.7711 24.0443 31.8934 26.4607 32.2595L27.0599 28.3046ZM28.1731 31.6977C29.4462 30.4271 31.3325 28.3721 32.8727 26.3061C33.64 25.2767 34.3622 24.1907 34.8767 23.1623C35.3428 22.2306 35.8398 20.9649 35.6529 19.7257L31.6976 20.3223C31.6867 20.2501 31.7138 20.5443 31.2994 21.3726C30.9335 22.104 30.3646 22.9778 29.6657 23.9154C28.2733 25.7832 26.5261 27.6901 25.3475 28.8664L28.1731 31.6977ZM35.6529 19.7257C35.512 18.7916 34.9766 18.0536 34.5457 17.561C34.0841 17.0334 33.5139 16.5356 32.9656 16.0904C31.7253 15.0834 30.7073 14.4001 29.6909 13.5003C29.2294 13.0918 28.9048 12.749 28.7024 12.4669C28.4933 12.1754 28.5152 12.088 28.5192 12.1666C28.5422 12.6108 28.0966 12.2501 29.8551 11.4665L28.227 7.81285C26.215 8.70942 24.4085 10.1221 24.5245 12.3726C24.5752 13.3542 25.0072 14.1782 25.4523 14.7986C25.9042 15.4285 26.478 15.9983 27.0396 16.4954C28.0693 17.407 29.5963 18.5073 30.4444 19.1959C30.9404 19.5985 31.3003 19.9264 31.5352 20.1949C31.8009 20.4985 31.7285 20.5271 31.6976 20.3223L35.6529 19.7257ZM29.8551 11.4665C30.2373 11.2962 30.4405 11.2891 30.5071 11.2932C30.5509 11.2959 30.5718 11.3022 30.6159 11.3364C30.7817 11.4648 31.1044 11.8984 31.3751 12.9221C31.8984 14.9012 31.8875 17.7501 31.6847 19.8299L35.6658 20.2181C35.8849 17.9714 35.9466 14.5634 35.2422 11.8995C34.899 10.6017 34.2828 9.1173 33.0657 8.17435C31.6549 7.08133 29.9204 7.05827 28.227 7.81285L29.8551 11.4665ZM19.5366 27.8071C17.7858 28.0711 15.2134 28.8893 13.2852 30.6269L15.963 33.5984C17.1179 32.5576 18.857 31.9548 20.1332 31.7623L19.5366 27.8071ZM13.2852 30.6269C12.299 31.5157 11.4455 32.6798 11.0139 34.155C10.5796 35.6393 10.6154 37.2926 11.1795 39.0781L14.9937 37.8732C14.6342 36.7353 14.6714 35.8987 14.8529 35.2783C15.0372 34.6486 15.4142 34.0929 15.963 33.5984L13.2852 30.6269ZM16.3946 33.0429C17.4892 30.9594 19.4005 26.1796 20.2481 22.8327L16.3705 21.8508C15.6018 24.8861 13.805 29.3716 12.8536 31.1824L16.3946 33.0429ZM20.2481 22.8327C20.7254 20.9481 19.9237 19.4579 18.9893 18.4389C18.1263 17.4978 16.929 16.714 16.0805 16.1345C15.082 15.4525 14.5096 15.0161 14.2353 14.6425C14.1326 14.5026 14.1607 14.4843 14.1662 14.5585C14.1728 14.647 14.1318 14.6252 14.2433 14.4397L10.8153 12.3785C10.3631 13.1306 10.1115 13.9665 10.1771 14.8536C10.2417 15.7266 10.5986 16.4479 11.011 17.0097C11.7668 18.0393 12.9698 18.8537 13.8244 19.4375C14.8291 20.1237 15.5628 20.6206 16.0412 21.1423C16.4482 21.5862 16.3983 21.741 16.3705 21.8508L20.2481 22.8327ZM14.2433 14.4397C14.257 14.417 14.3837 14.2404 14.8521 14.2242C15.3081 14.2084 15.8913 14.374 16.3934 14.7889C17.214 15.4669 18.3492 17.3663 16.4845 21.5231L20.1341 23.1604C22.4601 17.9753 21.6074 13.9083 18.9413 11.7054C17.7001 10.6798 16.1653 10.1763 14.7136 10.2266C13.2743 10.2764 11.7037 10.9011 10.8153 12.3785L14.2433 14.4397ZM29.7336 56.8668C30.0145 58.372 30.6273 59.8501 31.7324 61.0762L34.7036 58.3981C34.1918 57.8302 33.8418 57.0765 33.6658 56.133L29.7336 56.8668ZM31.1165 54.5869C29.9494 54.9427 28.1528 55.6558 26.4117 56.6789C24.7155 57.6756 22.8109 59.1169 21.7506 61.0307L25.2495 62.9692C25.7892 61.995 26.9512 61.0013 28.4382 60.1276C29.8803 59.2802 31.3834 58.6872 32.283 58.413L31.1165 54.5869ZM21.7506 61.0307C20.6298 63.0537 19.4543 66.4972 18.5748 69.6246C18.127 71.2169 17.74 72.7843 17.4632 74.1271C17.1968 75.419 17.0001 76.6514 17.0001 77.4999L21.0001 77.4999C21.0001 77.0984 21.1159 76.2195 21.3808 74.9349C21.6351 73.701 21.9982 72.2266 22.4254 70.7076C23.2958 67.6125 24.3703 64.556 25.2495 62.9692L21.7506 61.0307ZM17.0001 77.4999C17.0001 77.6091 16.9192 78.0263 16.5056 78.7639C16.1228 79.4465 15.5585 80.2207 14.8803 80.9837C13.4626 82.5786 11.8718 83.7678 10.8676 84.1025L12.1325 87.8973C14.1284 87.232 16.2876 85.4212 17.8699 83.6411C18.6917 82.7166 19.4398 81.7095 19.9945 80.7203C20.5185 79.786 21.0001 78.6408 21.0001 77.4999L17.0001 77.4999ZM31.7324 61.0762C32.5704 62.0058 33.7263 62.9846 35.044 63.9367L37.3867 60.6945C36.1944 59.833 35.2829 59.0408 34.7036 58.3981L31.7324 61.0762ZM35.2284 60.5761C33.749 61.4154 31.5628 62.9281 29.7166 64.8077C27.9447 66.6117 26.1003 69.1425 26.1003 71.9999L30.1003 71.9999C30.1003 70.7931 30.9609 69.2492 32.5703 67.6107C34.1054 66.0478 35.9766 64.7505 37.2022 64.0551L35.2284 60.5761ZM26.1003 71.9999C26.1003 73.4496 26.3197 74.9748 26.5652 76.4037C26.8223 77.9005 27.0936 79.2235 27.2826 80.5601C27.4687 81.8758 27.5356 82.971 27.424 83.8542C27.3157 84.7116 27.0585 85.225 26.7095 85.5627L29.4911 88.4372C30.6923 87.2749 31.2102 85.7983 31.3925 84.3557C31.5715 82.939 31.4447 81.4242 31.2432 80C31.0447 78.5966 30.7347 77.0497 30.5074 75.7265C30.2685 74.3353 30.1003 73.0904 30.1003 71.9999L26.1003 71.9999ZM26.7095 85.5627C24.4388 87.76 21.7041 89.2365 20.7122 89.6616L22.2879 93.3382C23.6293 92.7633 26.8014 91.0399 29.4911 88.4372L26.7095 85.5627ZM35.044 63.9367C37.1732 65.4752 39.8746 67.0515 42.7134 68.3463L44.3732 64.7069C41.7581 63.5142 39.2878 62.0682 37.3867 60.6945L35.044 63.9367ZM41.9361 65.3362C41.1047 66.4587 39.917 68.3366 38.9793 70.425C38.0701 72.4496 37.2504 74.9861 37.5127 77.3051L41.4874 76.8554C41.3497 75.6386 41.7944 73.9206 42.6283 72.0635C43.4336 70.2701 44.4675 68.6391 45.1505 67.717L41.9361 65.3362ZM37.5127 77.3051C37.8035 79.8754 38.7713 81.4557 39.1452 82.3829C39.3328 82.8483 39.4496 83.2709 39.4702 83.8253C39.4918 84.4074 39.41 85.229 39.0705 86.4737L42.9296 87.5262C43.3401 86.0208 43.5083 84.7799 43.4674 83.6771C43.4255 82.5465 43.1673 81.6616 42.8549 80.887C42.2288 79.3343 41.6966 78.7047 41.4874 76.8554L37.5127 77.3051ZM39.0705 86.4737C37.987 90.4467 35.751 92.8399 35.004 93.4084L37.4266 96.5914C38.8694 95.4933 41.6131 92.3532 42.9296 87.5262L39.0705 86.4737ZM42.7134 68.3463C44.611 69.2117 46.3399 70.0641 48.5058 70.6165L49.4943 66.7406C47.7569 66.2975 46.4074 65.6346 44.3732 64.7069L42.7134 68.3463ZM48.5058 70.6165C50.2982 71.0737 52.1958 71.3395 53.9636 71.3104C55.695 71.282 57.4987 70.9675 58.9405 70.0812L56.8458 66.6736C56.2664 67.0297 55.2796 67.2882 53.8978 67.311C52.5524 67.3331 51.014 67.1282 49.4943 66.7406L48.5058 70.6165ZM47.0756 68.134C46.71 69.4261 46.0342 72.5973 46.126 75.5963C46.1715 77.0828 46.4094 78.7382 47.1346 80.1229C47.9156 81.6143 49.2772 82.7876 51.3011 82.99L51.6991 79.0098C51.2229 78.9622 50.9387 78.7649 50.678 78.2672C50.3616 77.6629 50.162 76.7108 50.1241 75.474C50.0492 73.0262 50.6235 70.2868 50.9245 69.2232L47.0756 68.134ZM58.9405 70.0812C59.6781 69.6278 60.3029 69.1188 60.8409 68.6326L58.1592 65.6647C57.7313 66.0513 57.306 66.3907 56.8458 66.6736L58.9405 70.0812ZM60.8409 68.6326C61.4001 68.1273 62.0974 67.4202 62.4738 67.0655L59.7309 64.1541C59.0869 64.7608 58.7519 65.1291 58.1592 65.6647L60.8409 68.6326ZM57.7784 66.1308C57.3614 66.8362 56.9527 68.0286 56.6242 69.2533C56.278 70.5442 55.9615 72.0975 55.7971 73.6431C55.6358 75.1588 55.6042 76.8108 55.9206 78.2323C56.2256 79.6025 57.0051 81.3317 58.9182 81.9134L60.0819 78.0864C60.245 78.136 60.0156 78.2194 59.8251 77.3633C59.6459 76.5585 59.6323 75.404 59.7746 74.0664C59.9137 72.7587 60.1866 71.412 60.4876 70.2896C60.8064 69.1011 61.1031 68.3671 61.2217 68.1664L57.7784 66.1308ZM93.8 75.4C91.6065 77.0451 87.5933 77.9906 83.0065 78.2767C78.5153 78.5569 73.9187 78.1812 70.9154 77.5436L70.0847 81.4564C73.479 82.177 78.4416 82.5693 83.2556 82.269C87.974 81.9746 93.012 80.991 96.2 78.6L93.8 75.4ZM70.9154 77.5436C70.9166 77.5439 70.9072 77.5419 70.8853 77.5359C70.8639 77.5301 70.8354 77.5219 70.7992 77.5106C70.7257 77.4877 70.6342 77.4568 70.5252 77.4173C70.306 77.3381 70.051 77.2376 69.7817 77.1277C69.3077 76.9344 68.6566 76.6546 68.349 76.5403L66.9554 80.2896C67.1953 80.3788 67.6281 80.5693 68.2712 80.8316C68.786 81.0415 69.5358 81.3399 70.0847 81.4564L70.9154 77.5436ZM68.651 78.7377C67.8944 80.573 65.3469 86.1259 68.8616 91.1469L72.1385 88.853C70.0532 85.874 71.439 82.4699 72.3491 80.2623L68.651 78.7377ZM68.8616 91.1469C70.3655 93.2953 71.8096 94.7199 73.072 95.6252C74.2631 96.4794 75.4767 96.9999 76.5001 96.9999L76.5 92.9999C76.69 92.9999 76.3037 93.0205 75.4031 92.3747C74.5739 91.78 73.4346 90.7046 72.1385 88.853L68.8616 91.1469ZM76.5222 79.7032C76.2501 81.517 76.1061 84.3294 76.5975 86.9224C77.0636 89.3814 78.2801 92.472 81.4254 93.4156L82.5748 89.5843C81.72 89.3278 80.9365 88.3351 80.5276 86.1775C80.144 84.1538 80.25 81.8162 80.4779 80.2966L76.5222 79.7032ZM28.6908 51.7629C31.9933 50.7424 34.4404 49.019 36.0305 46.8003L32.7793 44.4702C31.7764 45.8695 30.1166 47.1357 27.5099 47.9412L28.6908 51.7629ZM36.0491 46.774C36.0753 46.7361 36.1015 46.6989 36.1276 46.6624L32.8726 44.3375C32.8351 44.39 32.7978 44.443 32.7607 44.4965L36.0491 46.774ZM32.7607 44.4966C31.7015 46.026 30.7663 48.0445 30.1813 50.1698C29.599 52.2858 29.3219 54.6605 29.7336 56.8668L33.6658 56.133C33.4 54.7091 33.5574 52.9772 34.0379 51.2312C34.5159 49.4947 35.272 47.896 36.0491 46.774L32.7607 44.4966Z" fill="#4F3E3E"/>
<defs>
<linearGradient id="paint0_linear_145_12" x1="12.1178" y1="37.4822" x2="34.7291" y2="50.7728" gradientUnits="userSpaceOnUse">
<stop offset="0.153469" stop-color="#655050"/>
<stop offset="1" stop-color="#5D3A3A"/>
</linearGradient>
<linearGradient id="paint1_linear_145_12" x1="44.0596" y1="51.9156" x2="60.4333" y2="87.5256" gradientUnits="userSpaceOnUse">
<stop stop-color="#6A5555"/>
<stop offset="1" stop-color="#4B1F1F"/>
</linearGradient>
<linearGradient id="paint2_linear_145_12" x1="75.5" y1="57" x2="88" y2="88.5" gradientUnits="userSpaceOnUse">
<stop stop-color="#6A5555"/>
<stop offset="1" stop-color="#4E2B2B"/>
</linearGradient>
</defs>
</svg>
