<svg width="201" height="201" viewBox="0 0 201 201" fill="none" xmlns="http://www.w3.org/2000/svg">
<rect x="0.0366211" y="0.252808" width="200" height="200" rx="28" fill="#919970"/>
<path d="M38.4286 58.4405V97.0714H73.4935V116.036H39.8312H23V58.4405H38.4286Z" fill="#768246"/>
<path d="M136.61 52.8214H185V31.0476H132.403H115.571V47V47.9048V66.1667H126.091H136.61V52.8214Z" fill="#768246"/>
<path d="M110.662 143V165.202H167.468V123.762H149.234V149.75H132.403V132.19H110.662V143Z" fill="#768246"/>
<path d="M69.987 168.298V183.75H94.5325V168.298V154.25H71.3896H69.987V168.298Z" fill="#768246"/>
<path d="M42.1786 33.8571C42.1786 31.7861 40.4996 30.1071 38.4286 30.1071C36.3575 30.1071 34.6786 31.7861 34.6786 33.8571H42.1786ZM38.4286 97.0714H34.6786C34.6786 99.1425 36.3575 100.821 38.4286 100.821V97.0714ZM93.1299 97.0714H96.8799C96.8799 95.0004 95.2009 93.3214 93.1299 93.3214V97.0714ZM93.1299 132.19V135.94C95.2009 135.94 96.8799 134.262 96.8799 132.19H93.1299ZM69.987 132.19V128.44C67.9159 128.44 66.237 130.119 66.237 132.19H69.987ZM69.987 143H66.237C66.237 145.071 67.9159 146.75 69.987 146.75V143ZM110.662 165.202H106.912C106.912 167.273 108.591 168.952 110.662 168.952V165.202ZM167.468 165.202V168.952C169.539 168.952 171.218 167.273 171.218 165.202H167.468ZM167.468 106.202V102.452C165.396 102.452 163.718 104.131 163.718 106.202H167.468ZM185 109.952C187.071 109.952 188.75 108.273 188.75 106.202C188.75 104.131 187.071 102.452 185 102.452V109.952ZM57.6071 33.8571C57.6071 31.7861 55.9282 30.1071 53.8571 30.1071C51.7861 30.1071 50.1071 31.7861 50.1071 33.8571H57.6071ZM53.8571 82.3214H50.1071C50.1071 84.3925 51.7861 86.0714 53.8571 86.0714V82.3214ZM110.662 82.3214H114.412C114.412 80.2504 112.733 78.5714 110.662 78.5714V82.3214ZM132.403 132.19H136.153C136.153 130.119 134.474 128.44 132.403 128.44V132.19ZM132.403 149.75H128.653C128.653 151.821 130.332 153.5 132.403 153.5V149.75ZM149.234 149.75V153.5C151.305 153.5 152.984 151.821 152.984 149.75H149.234ZM149.234 91.4524V87.7024C147.163 87.7024 145.484 89.3813 145.484 91.4524H149.234ZM185 95.2024C187.071 95.2024 188.75 93.5235 188.75 91.4524C188.75 89.3813 187.071 87.7024 185 87.7024V95.2024ZM23 58.4405V54.6905C20.9289 54.6905 19.25 56.3694 19.25 58.4405H23ZM23 116.036H19.25C19.25 118.107 20.9289 119.786 23 119.786V116.036ZM73.4935 116.036V119.786C75.5646 119.786 77.2435 118.107 77.2435 116.036H73.4935ZM98.039 58.4405H101.789C101.789 56.3694 100.11 54.6905 98.039 54.6905V58.4405ZM98.039 66.1667H94.289C94.289 68.2377 95.9679 69.9167 98.039 69.9167V66.1667ZM126.091 116.036H122.341C122.341 118.107 124.02 119.786 126.091 119.786V116.036ZM136.61 116.036V119.786C138.681 119.786 140.36 118.107 140.36 116.036H136.61ZM136.61 52.8214V49.0714C134.539 49.0714 132.86 50.7504 132.86 52.8214H136.61ZM185 52.8214V56.5714C187.071 56.5714 188.75 54.8925 188.75 52.8214H185ZM185 31.0476H188.75C188.75 28.9766 187.071 27.2976 185 27.2976V31.0476ZM149.935 68.0357C147.864 68.0357 146.185 69.7146 146.185 71.7857C146.185 73.8568 147.864 75.5357 149.935 75.5357V68.0357ZM185 75.5357C187.071 75.5357 188.75 73.8568 188.75 71.7857C188.75 69.7146 187.071 68.0357 185 68.0357V75.5357ZM53.8571 16.0595C51.7861 16.0595 50.1071 17.7385 50.1071 19.8095C50.1071 21.8806 51.7861 23.5595 53.8571 23.5595V16.0595ZM72.0909 19.8095H75.8409C75.8409 17.7385 74.162 16.0595 72.0909 16.0595V19.8095ZM72.0909 42.2857H68.3409C68.3409 44.3568 70.0198 46.0357 72.0909 46.0357V42.2857ZM98.039 42.2857V46.0357C100.11 46.0357 101.789 44.3568 101.789 42.2857H98.039ZM98.039 17V13.25C95.9679 13.25 94.289 14.9289 94.289 17H98.039ZM115.571 17H119.321C119.321 14.9289 117.642 13.25 115.571 13.25V17ZM179.75 123.762H183.5C183.5 121.691 181.821 120.012 179.75 120.012V123.762ZM179.75 179.75V183.5C181.821 183.5 183.5 181.821 183.5 179.75H179.75ZM39.8312 132.19V135.94C41.9022 135.94 43.5812 134.262 43.5812 132.19H39.8312ZM23 128.44C20.9289 128.44 19.25 130.119 19.25 132.19C19.25 134.262 20.9289 135.94 23 135.94V128.44ZM23 141.083C20.9289 141.083 19.25 142.762 19.25 144.833C19.25 146.904 20.9289 148.583 23 148.583V141.083ZM53.8571 144.833V148.583C55.9282 148.583 57.6071 146.904 57.6071 144.833H53.8571ZM57.6071 132.19C57.6071 130.119 55.9282 128.44 53.8571 128.44C51.7861 128.44 50.1071 130.119 50.1071 132.19H57.6071ZM39.8312 160.988V164.738C41.9022 164.738 43.5812 163.059 43.5812 160.988H39.8312ZM23 160.988V157.238C20.9289 157.238 19.25 158.917 19.25 160.988H23ZM23 173.631H19.25C19.25 175.702 20.9289 177.381 23 177.381V173.631ZM53.8571 173.631V177.381C55.9282 177.381 57.6071 175.702 57.6071 173.631H53.8571ZM57.6071 159.583C57.6071 157.512 55.9282 155.833 53.8571 155.833C51.7861 155.833 50.1071 157.512 50.1071 159.583H57.6071ZM69.987 183.75H66.237C66.237 185.821 67.9159 187.5 69.987 187.5V183.75ZM94.5325 183.75V187.5C96.6035 187.5 98.2825 185.821 98.2825 183.75H94.5325ZM94.5325 154.25H98.2825C98.2825 152.179 96.6035 150.5 94.5325 150.5V154.25ZM110 176C107.929 176 106.25 177.679 106.25 179.75C106.25 181.821 107.929 183.5 110 183.5V176ZM69.987 154.25V150.5C67.9159 150.5 66.237 152.179 66.237 154.25H69.987ZM89.3799 97.0714V132.19H96.8799V97.0714H89.3799ZM93.1299 128.44H69.987V135.94H93.1299V128.44ZM66.237 132.19V143H73.737V132.19H66.237ZM106.912 143V165.202H114.412V143H106.912ZM110.662 168.952H167.468V161.452H110.662V168.952ZM167.468 109.952H185V102.452H167.468V109.952ZM50.1071 33.8571V82.3214H57.6071V33.8571H50.1071ZM53.8571 86.0714H110.662V78.5714H53.8571V86.0714ZM106.912 82.3214V132.19H114.412V82.3214H106.912ZM110.662 135.94H132.403V128.44H110.662V135.94ZM128.653 132.19V149.75H136.153V132.19H128.653ZM132.403 153.5H149.234V146H132.403V153.5ZM149.234 95.2024H185V87.7024H149.234V95.2024ZM34.6786 33.8571V58.4405H42.1786V33.8571H34.6786ZM34.6786 58.4405V97.0714H42.1786V58.4405H34.6786ZM38.4286 54.6905H23V62.1905H38.4286V54.6905ZM19.25 58.4405V116.036H26.75V58.4405H19.25ZM38.4286 100.821H73.4935V93.3214H38.4286V100.821ZM73.4935 100.821H93.1299V93.3214H73.4935V100.821ZM77.2435 116.036V97.0714H69.7435V116.036H77.2435ZM55.961 62.1905H98.039V54.6905H55.961V62.1905ZM94.289 58.4405V66.1667H101.789V58.4405H94.289ZM122.341 66.1667V116.036H129.841V66.1667H122.341ZM126.091 119.786H136.61V112.286H126.091V119.786ZM136.61 56.5714H185V49.0714H136.61V56.5714ZM188.75 52.8214V31.0476H181.25V52.8214H188.75ZM185 27.2976H132.403V34.7976H185V27.2976ZM149.935 75.5357H185V68.0357H149.935V75.5357ZM53.8571 23.5595H72.0909V16.0595H53.8571V23.5595ZM68.3409 19.8095V42.2857H75.8409V19.8095H68.3409ZM72.0909 46.0357H98.039V38.5357H72.0909V46.0357ZM101.789 42.2857V17H94.289V42.2857H101.789ZM98.039 20.75H115.571V13.25H98.039V20.75ZM168.87 127.512H179.75V120.012H168.87V127.512ZM176 123.762V179.75H183.5V123.762H176ZM179.75 176H112.766V183.5H179.75V176ZM23 119.786H39.8312V112.286H23V119.786ZM39.8312 119.786H73.4935V112.286H39.8312V119.786ZM36.0812 116.036V132.19H43.5812V116.036H36.0812ZM39.8312 128.44H23V135.94H39.8312V128.44ZM23 148.583H39.8312V141.083H23V148.583ZM39.8312 148.583H53.8571V141.083H39.8312V148.583ZM57.6071 144.833V132.19H50.1071V144.833H57.6071ZM36.0812 146.94V160.988H43.5812V146.94H36.0812ZM39.8312 157.238H23V164.738H39.8312V157.238ZM19.25 160.988V173.631H26.75V160.988H19.25ZM23 177.381H53.8571V169.881H23V177.381ZM57.6071 173.631V159.583H50.1071V173.631H57.6071ZM66.237 168.298V183.75H73.737V168.298H66.237ZM69.987 187.5H94.5325V180H69.987V187.5ZM98.2825 183.75V168.298H90.7825V183.75H98.2825ZM98.2825 168.298V154.25H90.7825V168.298H98.2825ZM94.5325 150.5H71.3896V158H94.5325V150.5ZM112.766 176H111.5V183.5H112.766V176ZM111.5 176H110V183.5H111.5V176ZM140.36 116.036V66.1667H132.86V116.036H140.36ZM140.36 66.1667V52.8214H132.86V66.1667H140.36ZM126.091 69.9167H136.61V62.4167H126.091V69.9167ZM111.821 17V31.0476H119.321V17H111.821ZM132.403 27.2976H115.571V34.7976H132.403V27.2976ZM111.821 31.0476V47H119.321V31.0476H111.821ZM111.821 47V47.9048H119.321V47H111.821ZM98.039 69.9167H115.571V62.4167H98.039V69.9167ZM115.571 69.9167H126.091V62.4167H115.571V69.9167ZM111.821 47V66.1667H119.321V47H111.821ZM111.821 47.9048V66.1667H119.321V47.9048H111.821ZM69.987 146.75H110.662V139.25H69.987V146.75ZM106.912 132.19V143H114.412V132.19H106.912ZM152.984 149.75V123.762H145.484V149.75H152.984ZM152.984 123.762V91.4524H145.484V123.762H152.984ZM171.218 165.202V123.762H163.718V165.202H171.218ZM167.468 120.012H149.234V127.512H167.468V120.012ZM168.87 120.012H167.468V127.512H168.87V120.012ZM171.218 123.762V106.202H163.718V123.762H171.218ZM73.737 168.298V154.25H66.237V168.298H73.737ZM69.987 158H71.3896V150.5H69.987V158Z" fill="url(#paint0_linear_145_7)"/>
<defs>
<linearGradient id="paint0_linear_145_7" x1="152.75" y1="55.25" x2="104" y2="173.75" gradientUnits="userSpaceOnUse">
<stop stop-color="#53552F"/>
<stop offset="0.54" stop-color="#73584F"/>
<stop offset="1" stop-color="#57592F"/>
</linearGradient>
</defs>
</svg>
