<svg width="114" height="117" viewBox="0 0 114 117" fill="none" xmlns="http://www.w3.org/2000/svg">
<path d="M13.2857 30.627V56.381H36.6623V69.0238H14.2208H3V30.627H13.2857Z" fill="#768246"/>
<path d="M78.7403 26.881H111V12.3651H75.9351H64.7143V23V23.6032V35.7778H71.7273H78.7403V26.881Z" fill="#768246"/>
<path d="M61.4416 87V101.802H99.3117V74.1746H87.1558V91.5H75.9351V79.7936H61.4416V87Z" fill="#768246"/>
<path d="M34.3247 103.865V114.167H50.6883V103.865V94.5H35.2597H34.3247V103.865Z" fill="#768246"/>
<path d="M15.7857 14.2381C15.7857 12.8574 14.6664 11.7381 13.2857 11.7381C11.905 11.7381 10.7857 12.8574 10.7857 14.2381H15.7857ZM13.2857 56.381H10.7857C10.7857 57.7617 11.905 58.881 13.2857 58.881V56.381ZM49.7532 56.381H52.2532C52.2532 55.0002 51.134 53.881 49.7532 53.881V56.381ZM49.7532 79.7936V82.2936C51.134 82.2936 52.2532 81.1744 52.2532 79.7936H49.7532ZM34.3247 79.7936V77.2936C32.944 77.2936 31.8247 78.4129 31.8247 79.7936H34.3247ZM34.3247 87H31.8247C31.8247 88.3807 32.944 89.5 34.3247 89.5V87ZM61.4416 101.802H58.9416C58.9416 103.182 60.0608 104.302 61.4416 104.302V101.802ZM99.3117 101.802V104.302C100.692 104.302 101.812 103.182 101.812 101.802H99.3117ZM99.3117 62.4683V59.9683C97.931 59.9683 96.8117 61.0875 96.8117 62.4683H99.3117ZM111 64.9683C112.381 64.9683 113.5 63.849 113.5 62.4683C113.5 61.0875 112.381 59.9683 111 59.9683V64.9683ZM26.0714 14.2381C26.0714 12.8574 24.9521 11.7381 23.5714 11.7381C22.1907 11.7381 21.0714 12.8574 21.0714 14.2381H26.0714ZM23.5714 46.5476H21.0714C21.0714 47.9283 22.1907 49.0476 23.5714 49.0476V46.5476ZM61.4416 46.5476H63.9416C63.9416 45.1669 62.8223 44.0476 61.4416 44.0476V46.5476ZM75.9351 79.7936H78.4351C78.4351 78.4129 77.3158 77.2936 75.9351 77.2936V79.7936ZM75.9351 91.5H73.4351C73.4351 92.8807 74.5544 94 75.9351 94V91.5ZM87.1558 91.5V94C88.5366 94 89.6558 92.8807 89.6558 91.5H87.1558ZM87.1558 52.6349V50.1349C85.7751 50.1349 84.6558 51.2542 84.6558 52.6349H87.1558ZM111 55.1349C112.381 55.1349 113.5 54.0156 113.5 52.6349C113.5 51.2542 112.381 50.1349 111 50.1349V55.1349ZM3 30.627V28.127C1.61929 28.127 0.5 29.2463 0.5 30.627H3ZM3 69.0238H0.5C0.5 70.4045 1.61929 71.5238 3 71.5238L3 69.0238ZM36.6623 69.0238V71.5238C38.043 71.5238 39.1623 70.4045 39.1623 69.0238H36.6623ZM53.026 30.627H55.526C55.526 29.2463 54.4067 28.127 53.026 28.127V30.627ZM53.026 35.7778H50.526C50.526 37.1585 51.6453 38.2778 53.026 38.2778V35.7778ZM71.7273 69.0238H69.2273C69.2273 70.4045 70.3466 71.5238 71.7273 71.5238V69.0238ZM78.7403 69.0238V71.5238C80.121 71.5238 81.2403 70.4045 81.2403 69.0238H78.7403ZM78.7403 26.881V24.381C77.3595 24.381 76.2403 25.5002 76.2403 26.881H78.7403ZM111 26.881V29.381C112.381 29.381 113.5 28.2617 113.5 26.881H111ZM111 12.3651H113.5C113.5 10.9844 112.381 9.86508 111 9.86508V12.3651ZM87.6234 37.0238C86.2427 37.0238 85.1234 38.1431 85.1234 39.5238C85.1234 40.9045 86.2427 42.0238 87.6234 42.0238V37.0238ZM111 42.0238C112.381 42.0238 113.5 40.9045 113.5 39.5238C113.5 38.1431 112.381 37.0238 111 37.0238V42.0238ZM23.5714 2.37302C22.1907 2.37302 21.0714 3.4923 21.0714 4.87302C21.0714 6.25373 22.1907 7.37302 23.5714 7.37302V2.37302ZM35.7273 4.87302H38.2273C38.2273 3.4923 37.108 2.37302 35.7273 2.37302V4.87302ZM35.7273 19.8571H33.2273C33.2273 21.2379 34.3466 22.3571 35.7273 22.3571V19.8571ZM53.026 19.8571V22.3571C54.4067 22.3571 55.526 21.2379 55.526 19.8571H53.026ZM53.026 3V0.5C51.6453 0.5 50.526 1.61929 50.526 3L53.026 3ZM64.7143 3H67.2143C67.2143 1.61929 66.095 0.5 64.7143 0.5V3ZM107.5 74.1746H110C110 72.7939 108.881 71.6746 107.5 71.6746V74.1746ZM107.5 111.5V114C108.881 114 110 112.881 110 111.5H107.5ZM14.2208 79.7936V82.2936C15.6015 82.2936 16.7208 81.1744 16.7208 79.7936H14.2208ZM3 77.2936C1.61929 77.2936 0.5 78.4129 0.5 79.7936C0.5 81.1744 1.61929 82.2936 3 82.2936V77.2936ZM3 85.7222C1.61929 85.7222 0.5 86.8415 0.5 88.2222C0.5 89.6029 1.61929 90.7222 3 90.7222V85.7222ZM23.5714 88.2222V90.7222C24.9521 90.7222 26.0714 89.6029 26.0714 88.2222H23.5714ZM26.0714 79.7936C26.0714 78.4129 24.9521 77.2936 23.5714 77.2936C22.1907 77.2936 21.0714 78.4129 21.0714 79.7936H26.0714ZM14.2208 98.9921V101.492C15.6015 101.492 16.7208 100.373 16.7208 98.9921H14.2208ZM3 98.9921V96.4921C1.61929 96.4921 0.5 97.6114 0.5 98.9921H3ZM3 107.421H0.5C0.5 108.801 1.61929 109.921 3 109.921L3 107.421ZM23.5714 107.421V109.921C24.9521 109.921 26.0714 108.801 26.0714 107.421H23.5714ZM26.0714 98.0556C26.0714 96.6748 24.9521 95.5556 23.5714 95.5556C22.1907 95.5556 21.0714 96.6748 21.0714 98.0556H26.0714ZM34.3247 114.167H31.8247C31.8247 115.547 32.944 116.667 34.3247 116.667V114.167ZM50.6883 114.167V116.667C52.069 116.667 53.1883 115.547 53.1883 114.167H50.6883ZM50.6883 94.5H53.1883C53.1883 93.1193 52.069 92 50.6883 92V94.5ZM61 109C59.6193 109 58.5 110.119 58.5 111.5C58.5 112.881 59.6193 114 61 114V109ZM34.3247 94.5V92C32.944 92 31.8247 93.1193 31.8247 94.5H34.3247ZM47.2532 56.381V79.7936H52.2532V56.381H47.2532ZM49.7532 77.2936H34.3247V82.2936H49.7532V77.2936ZM31.8247 79.7936V87H36.8247V79.7936H31.8247ZM58.9416 87V101.802H63.9416V87H58.9416ZM61.4416 104.302H99.3117V99.3016H61.4416V104.302ZM99.3117 64.9683H111V59.9683H99.3117V64.9683ZM21.0714 14.2381V46.5476H26.0714V14.2381H21.0714ZM23.5714 49.0476H61.4416V44.0476H23.5714V49.0476ZM58.9416 46.5476V79.7936H63.9416V46.5476H58.9416ZM61.4416 82.2936H75.9351V77.2936H61.4416V82.2936ZM73.4351 79.7936V91.5H78.4351V79.7936H73.4351ZM75.9351 94H87.1558V89H75.9351V94ZM87.1558 55.1349H111V50.1349H87.1558V55.1349ZM10.7857 14.2381V30.627H15.7857V14.2381H10.7857ZM10.7857 30.627V56.381H15.7857V30.627H10.7857ZM13.2857 28.127H3V33.127H13.2857V28.127ZM0.5 30.627V69.0238H5.5V30.627H0.5ZM13.2857 58.881H36.6623V53.881H13.2857V58.881ZM36.6623 58.881H49.7532V53.881H36.6623V58.881ZM39.1623 69.0238V56.381H34.1623V69.0238H39.1623ZM24.974 33.127H53.026V28.127H24.974V33.127ZM50.526 30.627V35.7778H55.526V30.627H50.526ZM69.2273 35.7778V69.0238H74.2273V35.7778H69.2273ZM71.7273 71.5238H78.7403V66.5238H71.7273V71.5238ZM78.7403 29.381H111V24.381H78.7403V29.381ZM113.5 26.881V12.3651H108.5V26.881H113.5ZM111 9.86508H75.9351V14.8651H111V9.86508ZM87.6234 42.0238H111V37.0238H87.6234V42.0238ZM23.5714 7.37302H35.7273V2.37302H23.5714V7.37302ZM33.2273 4.87302V19.8571H38.2273V4.87302H33.2273ZM35.7273 22.3571H53.026V17.3571H35.7273V22.3571ZM55.526 19.8571V3H50.526V19.8571H55.526ZM53.026 5.5H64.7143V0.5H53.026V5.5ZM100.247 76.6746H107.5V71.6746H100.247V76.6746ZM105 74.1746V111.5H110V74.1746H105ZM107.5 109H62.8442V114H107.5V109ZM3 71.5238H14.2208V66.5238H3V71.5238ZM14.2208 71.5238H36.6623V66.5238H14.2208V71.5238ZM11.7208 69.0238V79.7936H16.7208V69.0238H11.7208ZM14.2208 77.2936H3V82.2936H14.2208V77.2936ZM3 90.7222H14.2208V85.7222H3V90.7222ZM14.2208 90.7222H23.5714V85.7222H14.2208V90.7222ZM26.0714 88.2222V79.7936H21.0714V88.2222H26.0714ZM11.7208 89.627V98.9921H16.7208V89.627H11.7208ZM14.2208 96.4921H3V101.492H14.2208V96.4921ZM0.5 98.9921V107.421H5.5V98.9921H0.5ZM3 109.921H23.5714V104.921H3V109.921ZM26.0714 107.421V98.0556H21.0714V107.421H26.0714ZM31.8247 103.865V114.167H36.8247V103.865H31.8247ZM34.3247 116.667H50.6883V111.667H34.3247V116.667ZM53.1883 114.167V103.865H48.1883V114.167H53.1883ZM53.1883 103.865V94.5H48.1883V103.865H53.1883ZM50.6883 92H35.2597V97H50.6883V92ZM62.8442 109H62V114H62.8442V109ZM62 109H61V114H62V109ZM81.2403 69.0238V35.7778H76.2403V69.0238H81.2403ZM81.2403 35.7778V26.881H76.2403V35.7778H81.2403ZM71.7273 38.2778H78.7403V33.2778H71.7273V38.2778ZM62.2143 3V12.3651H67.2143V3H62.2143ZM75.9351 9.86508H64.7143V14.8651H75.9351V9.86508ZM62.2143 12.3651V23H67.2143V12.3651H62.2143ZM62.2143 23V23.6032H67.2143V23H62.2143ZM53.026 38.2778H64.7143V33.2778H53.026V38.2778ZM64.7143 38.2778H71.7273V33.2778H64.7143V38.2778ZM62.2143 23V35.7778H67.2143V23H62.2143ZM62.2143 23.6032V35.7778H67.2143V23.6032H62.2143ZM34.3247 89.5H61.4416V84.5H34.3247V89.5ZM58.9416 79.7936V87H63.9416V79.7936H58.9416ZM89.6558 91.5V74.1746H84.6558V91.5H89.6558ZM89.6558 74.1746V52.6349H84.6558V74.1746H89.6558ZM101.812 101.802V74.1746H96.8117V101.802H101.812ZM99.3117 71.6746H87.1558V76.6746H99.3117V71.6746ZM100.247 71.6746H99.3117V76.6746H100.247V71.6746ZM101.812 74.1746V62.4683H96.8117V74.1746H101.812ZM36.8247 103.865V94.5H31.8247V103.865H36.8247ZM34.3247 97H35.2597V92H34.3247V97Z" fill="url(#paint0_linear_145_8)"/>
<defs>
<linearGradient id="paint0_linear_145_8" x1="89.5" y1="28.5" x2="57" y2="107.5" gradientUnits="userSpaceOnUse">
<stop stop-color="#53552F"/>
<stop offset="0.54" stop-color="#73584F"/>
<stop offset="1" stop-color="#57592F"/>
</linearGradient>
</defs>
</svg>
