<svg width="115" height="108" viewBox="0 0 115 108" fill="none" xmlns="http://www.w3.org/2000/svg">
<path d="M16 14C19 32 25 28.5 31.5 35C37.5 39.4 34 44.5 31.5 46.5" stroke="black" stroke-width="3"/>
<path d="M39.259 69.6964C16.259 68.6964 13.4817 68.3481 8.08285 62.8482C-0.673549 53.928 3.52229 33.7589 4.49998 29.8482C5.49997 25.8483 11.3238 4.50002 40.3238 3.00006C69.3238 1.5001 87.3076 9.81101 92 12.5C97.5 15.6518 115.36 26.1413 112 47.8482C109.5 64.0001 74.9238 73.3482 73.5 77.3482C70 87.1813 52.2 105.748 47 105.348C40.5 104.848 44.344 95.418 48 90.8482C52 85.8483 55.759 70.6783 39.259 69.6964Z" fill="url(#paint0_linear_145_4)" stroke="#6A5555" stroke-width="5" stroke-linecap="round" stroke-linejoin="round"/>
<path d="M53.5 4C56.3333 5.5 61.5 9.4 59.5 13C57 17.5 47 17 51 20C55 23 64.5 21 63 27C61.5 33 60 38.5 61.5 38M65 18C68 17.3333 74.2 17.2 75 22C76 28 70 27.5 75 30C80 32.5 91.5 27.5 92.5 33.5C93.5 39.5 92 41.5 94.5 42C97 42.5 102 36.4645 102 40C102 43.5 101.5 44.5 100.5 45.5" stroke="#6A5555" stroke-width="3" stroke-linecap="round"/>
<path d="M38.5 33.5L38.8342 32.0377L38.6692 32H38.5V33.5ZM45 39L45.2027 40.4862L45 39ZM28.431 61.9367C29.2245 61.6987 29.6748 60.8625 29.4367 60.069C29.1987 59.2755 28.3625 58.8252 27.569 59.0633L28.431 61.9367ZM15.0917 15.4972C19.1102 15.2512 24.7563 15.4117 28.788 16.6012C30.8353 17.2052 32.1869 17.9956 32.8267 18.8672C33.1217 19.2692 33.2751 19.6993 33.282 20.2016C33.2891 20.7232 33.1382 21.4126 32.6713 22.304L35.3287 23.696C35.9618 22.4874 36.2973 21.3049 36.2817 20.1605C36.2658 18.9968 35.8871 17.9667 35.2452 17.0921C34.011 15.4107 31.8689 14.3823 29.637 13.7238C25.1104 12.3883 19.0564 12.2488 14.9083 12.5028L15.0917 15.4972ZM32.6713 22.304C30.3509 26.7337 30.3764 30.0812 32.1781 32.3363C33.8519 34.4313 36.6391 35 38.5 35V32C37.0276 32 35.3648 31.5187 34.5219 30.4637C33.8069 29.5688 33.2491 27.6662 35.3287 23.696L32.6713 22.304ZM38.1658 34.9623C41.0902 35.6307 44.7348 36.6707 46.5348 37.6252C46.9892 37.8662 47.1816 38.0289 47.2278 38.0808C47.2444 38.0995 47.1566 38.0111 47.109 37.8145C47.0508 37.5744 47.0864 37.3093 47.2048 37.0955C47.3658 36.8045 47.5237 36.8731 46.9946 37.0568C46.5577 37.2085 45.8544 37.3696 44.7973 37.5138L45.2027 40.4862C46.3456 40.3304 47.2714 40.1363 47.9785 39.8909C48.5932 39.6774 49.4097 39.3069 49.8296 38.5482C50.0774 38.1006 50.1425 37.5945 50.0246 37.1079C49.9172 36.6647 49.6804 36.3243 49.4695 36.0872C49.0605 35.6273 48.4837 35.263 47.9402 34.9748C45.7485 33.8126 41.7432 32.7026 38.8342 32.0377L38.1658 34.9623ZM44.7973 37.5138C42.0513 37.8882 40.0421 38.2095 38.6758 38.5427C37.999 38.7078 37.397 38.8949 36.9175 39.1318C36.4908 39.3426 35.8359 39.7489 35.577 40.5257C35.2866 41.3969 35.676 42.1235 35.963 42.5105C36.2561 42.9059 36.6622 43.2572 37.0443 43.5563C37.8028 44.1499 38.9646 44.9062 40.1398 45.7288L41.8602 43.2712C40.5354 42.3438 39.5722 41.7251 38.8932 41.1937C38.5566 40.9303 38.4157 40.7816 38.3729 40.7239C38.324 40.6578 38.5884 40.9781 38.423 41.4743C38.2891 41.8761 38.0092 41.9386 38.2465 41.8214C38.4311 41.7301 38.7823 41.6047 39.3867 41.4573C40.5829 41.1655 42.4487 40.8618 45.2027 40.4862L44.7973 37.5138ZM40.1398 45.7288C42.1382 47.1278 43.1701 50.0276 42.7765 52.0943C42.5922 53.062 42.136 53.6716 41.4975 53.9657C40.8198 54.2778 39.588 54.397 37.5437 53.602L36.4563 56.398C38.912 57.353 41.0552 57.4722 42.7525 56.6906C44.489 55.8909 45.4078 54.313 45.7235 52.6557C46.3299 49.4724 44.8618 45.3723 41.8602 43.2712L40.1398 45.7288ZM37.5437 53.602C32.3771 51.5928 28.2287 53.6036 26.1211 56.0122C25.5961 56.6123 25.1773 57.2585 24.8998 57.9025C24.6317 58.5247 24.4497 59.2531 24.5438 59.9753C24.6474 60.7693 25.1022 61.5547 25.9992 61.9329C26.7849 62.2642 27.6546 62.1697 28.431 61.9367L27.569 59.0633C27.0954 59.2053 27.0276 59.1108 27.1649 59.1686C27.4134 59.2734 27.5088 59.512 27.5187 59.5872C27.5191 59.5906 27.509 59.4284 27.6549 59.0897C27.7915 58.7727 28.0289 58.3877 28.3789 57.9878C29.7713 56.3964 32.6229 54.9072 36.4563 56.398L37.5437 53.602Z" fill="#6A5555"/>
<path d="M6.5 26C13.5013 29.2673 16.3506 27.9453 18 30C19.8843 32.3474 16.3996 36.0339 14 39.5C9.5 46 12.5 50.5 19.5 49.5C26.5 48.5 32.5 46.5 27.5 38.5C23.3861 31.9178 21 38 21.5 41" stroke="#6A5555" stroke-width="3" stroke-linecap="round"/>
<path d="M46 71C48.8333 68 55.1 61.9 61.5 65.5C69.5 70 76.3528 67.0767 78.5 64.5C81 61.5 79.5 54.9999 71.5 58.9999" stroke="#6A5555" stroke-width="3" stroke-linecap="round"/>
<path d="M50 43.5C50.5 50 53 51.5 55.5 53C58 54.5 63.5 56 66 51.5C68.5 47 70.5 43.5 73.5 43.5C76.5 43.5 81 44 83 52.5C85 61 85.5 61.5 87.5 63C89.5 64.5 97.5 65.5 95 58.5C92.5 51.5 88.5 54 89 55.5" stroke="#6A5555" stroke-width="3" stroke-linecap="round"/>
<path d="M27.5 7C31.3333 7.33333 39.7 8.8 42.5 12C46 16 42.5 23 42.5 24.5C42.5 26 44 27 49.5 30C55 33 55.5 34 55 36.5C54.5 39 57 44.5 61 44.5C65 44.5 67.3675 41.3974 68 39.5C68.5 38 70 32.5 81.5 38.5C93 44.5 90 45 91 47C93.9833 52.9666 101.5 45 101.5 44M80.5 13.5C85 20.5 85 20.5 88.5 22C92 23.5 95 23 97.5 27.5" stroke="#6A5555" stroke-width="3" stroke-linecap="round"/>
<defs>
<linearGradient id="paint0_linear_145_4" x1="57.5275" y1="2.82047" x2="58" y2="115" gradientUnits="userSpaceOnUse">
<stop stop-color="#E0DBD0"/>
<stop offset="1" stop-color="#7D5959"/>
</linearGradient>
</defs>
</svg>
