<svg width="201" height="201" viewBox="0 0 201 201" fill="none" xmlns="http://www.w3.org/2000/svg">
<rect x="0.129883" y="0.339111" width="200" height="200" rx="42" fill="#6D7452"/>
<path d="M83.4884 33.7428C79.4014 34.8277 72.0858 39.0804 73.0667 44.8086C74.2928 51.9688 79.8101 54.5725 73.0667 58.478C66.3232 62.3836 58.9667 54.5725 54.6755 58.478C50.3842 62.3836 39.3494 64.9873 43.6407 72.7984C47.932 80.6095 63.258 94.9299 66.9363 91.6753C70.6145 88.4207 79.1971 91.6753 66.9363 98.8355C54.6755 105.996 46.7059 87.7697 41.8016 96.8827C36.8973 105.996 32.606 107.298 43.6407 112.505C54.6755 117.712 68.1623 121.052 73.0667 119.75C77.971 118.448 80.1275 105.843 90.657 111.288C100.891 116.581 112.113 98.2698 118.244 102.826C124.374 107.383 121.309 116.496 128.053 119.75C134.796 123.005 144.179 122.92 147.858 116.411C150.8 111.203 160.527 108.165 165.023 107.298C169.314 102.958 175.322 93.2375 165.023 89.0716C152.149 83.8642 153.988 76.704 141.727 80.6095C131.919 83.734 139.275 70.6287 144.179 63.6854C148.675 59.3459 155.705 50.5367 147.858 50.016C140.011 49.4952 135.597 41.9879 134.371 38.2993C131.714 33.3089 125.175 24.1091 120.271 27.2335C114.14 31.1391 115.366 21.3752 108.01 20.0733C100.654 18.7715 96.686 17.3137 98.2013 22.6771C100.04 29.1863 86.7245 32.8838 83.4884 33.7428Z" fill="url(#paint0_linear_145_5)" stroke="#40462B" stroke-width="7.5" stroke-linecap="round"/>
<path d="M82.3912 125.07C82.3912 127.881 84.2377 129.593 89.1616 132.082C94.701 133.95 98.7019 146.545 97.1631 154.326C94.7011 166.776 78.3736 170.146 64.2172 172.502C50.0001 174.868 46.6285 180.47 60.7848 181.715C74.9411 182.96 79.9292 175.491 90.3926 178.603C100.856 181.715 118.705 181.715 126.091 181.715C133.477 181.715 142.709 177.98 142.709 175.491C142.709 173.001 131.306 173.757 128.228 173.757C125.151 173.757 118.696 174.783 110.995 172.502C105.455 170.861 104.549 171.756 105.164 159.929C105.78 148.102 103.933 141.877 104.549 138.142C105.164 134.407 107.786 131.483 112.489 126.715C117.402 121.735 116.923 116.885 113.166 115.898C110.71 115.253 105.247 122.334 96.0143 124.201C91.8391 125.046 89.3924 124.014 87.3152 122.58C87.741 123.011 85.5022 121.477 87.3152 122.58C84.8532 120.09 82.3912 122.58 82.3912 125.07Z" fill="#574646"/>
<path d="M94.1249 124.536C93.2046 126.028 88.1227 123.072 87.3152 122.58M87.3152 122.58C84.8532 120.09 82.3912 122.58 82.3912 125.07C82.3912 127.881 84.2377 129.593 89.1616 132.082C94.701 133.95 98.7019 146.545 97.1631 154.326C94.7011 166.776 78.3736 170.146 64.2172 172.502C50.0001 174.868 46.6285 180.47 60.7848 181.715C74.9411 182.96 79.9292 175.491 90.3926 178.603C100.856 181.715 118.705 181.715 126.091 181.715C133.477 181.715 142.709 177.98 142.709 175.491C142.709 173.001 131.306 173.757 128.228 173.757C125.151 173.757 118.696 174.783 110.995 172.502C105.455 170.861 104.549 171.756 105.164 159.929C105.78 148.102 103.933 141.877 104.549 138.142C105.164 134.407 107.786 131.483 112.489 126.715C117.402 121.735 116.923 116.885 113.166 115.898C110.71 115.253 105.247 122.334 96.0143 124.201C91.8391 125.046 89.3924 124.014 87.3152 122.58ZM87.3152 122.58C85.5022 121.477 87.741 123.011 87.3152 122.58ZM87.3152 122.58C85.7178 121.478 87.6719 122.725 87.3152 122.58Z" stroke="#483939" stroke-width="7.5"/>
<defs>
<linearGradient id="paint0_linear_145_5" x1="102.305" y1="108.685" x2="102.305" y2="-23.4535" gradientUnits="userSpaceOnUse">
<stop stop-color="#444A2F"/>
<stop offset="1" stop-color="#A2B06F"/>
</linearGradient>
</defs>
</svg>
