<svg width="1285" height="987" viewBox="0 0 1285 987" fill="none" xmlns="http://www.w3.org/2000/svg">
<path d="M146.228 54.6466C74.2327 48.8916 58.2839 50.5695 55.9224 62.4021C53.5608 74.2347 57.8501 88.5293 66.3957 98.1521C73.2322 105.85 75.3514 115.286 75.5565 119.041" stroke="#6D764C" stroke-width="7" stroke-linecap="round"/>
<path d="M147 54.4388C179.779 41.392 159.913 -8.37924 178.289 15.2983C196.664 38.9759 164.383 108.076 194.181 67.4856C223.98 26.8955 209.081 -4.0303 223.98 15.2983C238.879 34.6269 228.45 76.1835 247.819 64.1031C267.188 52.0227 260.732 42.8416 274.638 51.5395C285.762 58.4978 292.848 56.3716 295 54.4388" stroke="#6D764C" stroke-width="7" stroke-linecap="round"/>
<path d="M295 54.8368C318.154 78.8088 338.792 81.7322 344.832 61.853C350.872 41.9738 351.879 9.81634 341.812 26.7721C331.745 43.7279 343.322 56.5909 357.416 61.853C371.51 67.1152 390.134 39.0504 406.242 52.4981C422.349 65.9458 442.483 54.8368 445 54.8368" stroke="#6D764C" stroke-width="7" stroke-linecap="round"/>
<path d="M953.807 767.983C975.697 778.813 996.885 780.115 1003.07 771.419C1009.26 762.723 1010.82 748.558 1000.8 755.919C990.786 763.281 1001.71 769.082 1015.21 771.562C1028.7 774.041 1047.18 761.878 1062.46 767.989C1077.75 774.1 1099.95 773.397 1099.95 769.787" stroke="#6D764C" stroke-width="7" stroke-linecap="round"/>
<path d="M126 771.022C148.767 782.189 168.57 782.825 174.509 773.565C180.449 764.304 181.438 749.324 171.54 757.223C161.641 765.122 173.025 771.114 186.883 773.565C200.741 776.016 219.053 762.943 234.891 769.207C250.728 775.471 270.525 770.297 273 770.297" stroke="#6D764C" stroke-width="7" stroke-linecap="round"/>
<path d="M444.989 54.8019C472.551 37.2542 461.855 116.223 474.919 93.3029C487.984 70.3831 476.965 74.6268 489.435 91.2026C501.905 107.778 489.984 70.9217 492.996 66.6589C496.009 62.3961 498.498 67.7395 500.484 74.1492C502.47 80.5589 503.472 80.0275 505.488 74.1612C507.503 68.2948 518.072 42.7003 536.563 52.3519C555.054 62.0034 591.083 61.022 596.608 52.4953" stroke="#6D764C" stroke-width="7" stroke-linecap="round"/>
<path d="M416.336 773.655C389.47 781.224 402.736 743.613 389.449 754.004C376.161 764.395 386.796 762.66 375.57 754.663C364.344 746.667 374.28 764.1 371.255 766.02C368.23 767.94 366.066 765.395 364.421 762.366C362.775 759.336 361.803 759.561 359.664 762.25C357.526 764.939 346.51 776.631 329.297 771.728C312.085 766.824 270.195 772.881 272.137 770.561" stroke="#6D764C" stroke-width="7" stroke-linecap="round"/>
<path d="M71.5592 716.691C88.0308 689.271 14.7075 699.414 36.0593 686.518C57.4112 673.621 53.3969 684.602 38.1102 672.027C22.8235 659.453 56.9258 671.619 60.9011 668.638C64.8763 665.658 59.9377 663.134 54.0064 661.105C48.0752 659.076 48.5751 658.078 54.0308 656.105C59.4864 654.131 83.3015 643.747 74.48 625.204C65.6586 606.661 66.824 570.666 74.7721 565.205" stroke="#6D764C" stroke-width="7" stroke-linecap="round"/>
<path d="M547.842 767.852C574.936 774.761 563.065 742.198 576.182 751.52C589.298 760.842 578.519 759.228 590.316 752.202C602.113 745.176 591.23 760.593 594.236 762.319C597.241 764.045 599.558 761.8 601.366 759.12C603.174 756.44 604.157 756.647 606.224 759.05C608.292 761.454 619.036 771.915 636.809 767.679C654.583 763.442 689.587 763.381 695.112 766.84" stroke="#6D764C" stroke-width="7" stroke-linecap="round"/>
<path d="M1236.48 454.974C1219.88 427.48 1293.7 437.592 1272.19 424.672C1250.69 411.753 1254.74 422.766 1270.12 410.137C1285.5 397.508 1251.18 409.744 1247.17 406.757C1243.17 403.77 1248.14 401.233 1254.11 399.193C1260.08 397.152 1259.57 396.152 1254.08 394.176C1248.58 392.201 1224.6 381.804 1233.47 363.193C1242.33 344.582 1241.13 308.472 1233.12 302.999" stroke="#6D764C" stroke-width="7" stroke-linecap="round"/>
<path d="M75.9415 120.104C93.0704 147.216 18.8483 138.423 40.6419 150.925C62.4355 163.426 58.1833 152.521 42.9752 165.375C27.7672 178.228 61.9817 165.437 66.0497 168.344C70.1178 171.251 65.1766 173.866 59.2243 176.003C53.2719 178.141 53.7948 179.129 59.3394 181.002C64.884 182.875 89.1194 192.819 80.5478 211.522C71.9762 230.224 73.8049 266.192 81.9294 271.506" stroke="#6D764C" stroke-width="7" stroke-linecap="round"/>
<path d="M896.989 52.7014C924.005 35.5209 913.521 112.837 926.327 90.3969C939.132 67.9568 928.332 72.1116 940.555 88.3406C952.778 104.57 941.093 68.484 944.046 64.3105C946.999 60.1369 949.438 65.3685 951.385 71.6441C953.332 77.9196 954.314 77.3994 956.29 71.6558C958.266 65.9122 968.625 40.8533 986.75 50.3029C1004.87 59.7526 1040.19 58.7918 1045.61 50.4435" stroke="#6D764C" stroke-width="7" stroke-linecap="round"/>
<path d="M594.938 49.3525C593.329 50.4228 592.891 52.5953 593.962 54.205C595.032 55.8146 597.205 56.2518 598.814 55.1815L594.938 49.3525ZM686.545 56.1424L689.317 54.0053C689.066 53.6798 688.76 53.4011 688.412 53.1819L686.545 56.1424ZM693.133 45.2925L690.663 42.8125L693.133 45.2925ZM747.44 55.4536C748.626 56.9796 750.825 57.2547 752.351 56.0682C753.877 54.8817 754.152 52.6827 752.966 51.1568L747.44 55.4536ZM598.814 55.1815C604.695 51.2714 610.595 51.9211 616.922 55.3045C623.438 58.7891 629.827 64.9058 635.944 71.0242C638.932 74.0133 641.881 77.0236 644.609 79.5165C647.299 81.9743 650.066 84.2066 652.757 85.4691C655.517 86.7641 658.937 87.3388 662.014 85.1227C664.716 83.1762 666.272 79.626 667.28 75.3049L660.463 73.7144C659.536 77.6872 658.46 79.0558 657.922 79.4429C657.759 79.5604 657.332 79.8835 655.73 79.1318C654.058 78.3475 651.946 76.738 649.331 74.3487C646.754 71.9948 643.972 69.153 640.894 66.075C634.88 60.0592 627.796 53.1815 620.223 49.1317C612.461 44.9809 603.655 43.5564 594.938 49.3525L598.814 55.1815ZM667.28 75.3049C669.189 67.1253 671.053 61.9013 672.782 58.6789C674.536 55.4102 675.843 54.7582 676.373 54.6205C676.912 54.4801 677.766 54.5716 679.383 55.513C680.154 55.9624 680.952 56.5161 681.853 57.1576C682.709 57.7668 683.7 58.486 684.678 59.1029L688.412 53.1819C687.644 52.6975 686.858 52.128 685.912 51.4547C685.012 50.8138 683.982 50.0912 682.905 49.4641C680.825 48.2526 677.898 46.9908 674.611 47.8459C671.312 48.7037 668.745 51.3959 666.614 55.3696C664.457 59.3895 662.425 65.3061 660.463 73.7144L667.28 75.3049ZM683.773 58.2796C687.845 63.5609 687.584 66.0416 687.435 66.4543C687.405 66.5357 687.438 66.4514 687.522 66.4241C687.535 66.4197 687.381 66.4658 687.102 66.3312C686.743 66.157 685.584 65.2963 686.019 62.4692C686.478 59.482 688.779 54.5678 695.602 47.7725L690.663 42.8125C683.361 50.0845 679.886 56.298 679.1 61.4052C678.29 66.6724 680.417 70.8727 684.053 72.6321C685.773 73.4643 687.793 73.6954 689.682 73.0823C691.642 72.4465 693.25 70.9599 694.018 68.8337C695.465 64.8313 693.689 59.6757 689.317 54.0053L683.773 58.2796ZM695.602 47.7725C705.872 37.5459 716.489 36.8575 725.701 39.8725C735.199 42.9809 743.277 50.1003 747.44 55.4536L752.966 51.1568C748.186 45.0102 739.03 36.8695 727.879 33.2197C716.441 29.4764 702.995 30.5316 690.663 42.8125L695.602 47.7725Z" fill="#6D764C"/>
<path d="M812.737 776.125C814.657 775.557 815.915 773.618 815.546 771.794C815.177 769.97 813.322 768.952 811.401 769.521L812.737 776.125ZM744.648 768.429L742.206 771.185C742.446 771.38 742.716 771.538 743.01 771.655L744.648 768.429ZM739.03 772.572L740.207 775.684L739.03 772.572ZM698.883 764.786C697.462 763.638 695.221 763.945 693.877 765.471C692.534 766.998 692.597 769.166 694.018 770.315L698.883 764.786ZM811.401 769.521C806.562 770.953 801.85 770.463 797.187 768.874C792.479 767.27 788.056 764.631 783.832 761.999C779.826 759.503 775.645 756.758 771.965 755.644C770.056 755.066 767.811 754.766 765.502 755.511C763.057 756.3 761.194 758.041 759.845 760.293L765.858 763.265C766.464 762.252 766.881 762.104 767.02 762.059C767.294 761.971 767.936 761.893 769.197 762.274C771.855 763.079 775.143 765.197 779.566 767.953C783.77 770.572 788.736 773.572 794.207 775.436C799.724 777.316 805.983 778.124 812.737 776.125L811.401 769.521ZM759.845 760.293C756.151 766.461 753.802 767.206 752.75 767.305C752.033 767.373 751.197 767.226 750.069 766.811C749.511 766.605 748.943 766.358 748.304 766.073C747.695 765.802 746.988 765.481 746.286 765.202L743.01 771.655C743.559 771.873 744.116 772.125 744.79 772.426C745.433 772.712 746.168 773.035 746.94 773.32C748.473 773.885 750.408 774.401 752.639 774.19C757.481 773.734 761.73 770.159 765.858 763.265L759.845 760.293ZM747.09 765.672C745.802 764.622 745.414 764 745.34 763.834C745.308 763.764 745.666 764.693 744.794 765.714C744.204 766.406 743.657 766.374 743.974 766.333C744.16 766.31 744.474 766.325 744.766 766.416C745.092 766.518 745.041 766.597 744.899 766.393C744.642 766.024 744.634 765.486 744.775 765.167C744.818 765.07 744.649 765.491 743.479 766.355C742.358 767.183 740.573 768.23 737.852 769.46L740.207 775.684C743.235 774.316 745.58 772.995 747.33 771.702C749.031 770.445 750.472 768.995 751.227 767.294C752.079 765.372 751.882 763.498 750.897 762.082C750.026 760.831 748.706 760.15 747.582 759.801C746.425 759.441 745.109 759.314 743.844 759.475C742.709 759.619 740.89 760.099 739.566 761.651C738.848 762.492 738.418 763.501 738.326 764.554C738.239 765.555 738.468 766.443 738.794 767.174C739.423 768.584 740.636 769.905 742.206 771.185L747.09 765.672ZM737.852 769.46C729.611 773.183 721.33 773.204 714.257 771.636C707.147 770.06 701.541 766.934 698.883 764.786L694.018 770.315C697.42 773.063 703.905 776.604 711.971 778.392C720.074 780.189 730.052 780.273 740.207 775.684L737.852 769.46Z" fill="#6D764C"/>
<path d="M1239.87 453.412C1238.82 451.788 1236.66 451.324 1235.03 452.374C1233.41 453.423 1232.94 455.59 1233.99 457.213L1239.87 453.412ZM1235.6 544.853L1237.92 547.477C1238.22 547.208 1238.48 546.889 1238.67 546.532L1235.6 544.853ZM1245.72 551.165L1248.24 548.736L1245.72 551.165ZM1237.46 605.671C1236.01 606.956 1235.88 609.169 1237.17 610.613C1238.45 612.057 1240.67 612.185 1242.11 610.9L1237.46 605.671ZM1233.99 457.213C1237.77 463.049 1237.3 469.059 1234.34 475.488C1231.3 482.079 1225.84 488.595 1220.39 494.838C1217.72 497.889 1215.03 500.904 1212.81 503.688C1210.61 506.437 1208.64 509.248 1207.55 511.949C1206.44 514.697 1206.02 518.012 1208.09 520.971C1209.97 523.661 1213.35 525.168 1217.41 526.087L1218.96 519.26C1215.36 518.446 1214.16 517.444 1213.82 516.958C1213.67 516.741 1213.38 516.213 1214.04 514.561C1214.73 512.86 1216.16 510.713 1218.28 508.054C1220.37 505.43 1222.91 502.59 1225.66 499.445C1231.03 493.296 1237.17 486.063 1240.69 478.419C1244.29 470.614 1245.37 461.905 1239.87 453.412L1233.99 457.213ZM1217.41 526.087C1224.94 527.791 1229.74 529.514 1232.69 531.136C1235.65 532.762 1236.29 534.02 1236.45 534.608C1236.62 535.248 1236.51 536.178 1235.69 537.803C1235.3 538.586 1234.81 539.397 1234.24 540.31C1233.71 541.179 1233.07 542.184 1232.53 543.173L1238.67 546.532C1239.1 545.753 1239.6 544.955 1240.2 543.996C1240.76 543.082 1241.4 542.039 1241.95 540.953C1243.01 538.839 1244.05 535.965 1243.21 532.811C1242.36 529.604 1239.84 527.077 1236.06 525C1232.27 522.919 1226.74 521.021 1218.96 519.26L1217.41 526.087ZM1233.28 542.229C1231.02 544.224 1229.28 545.246 1228.06 545.711C1227.45 545.94 1227.02 546.017 1226.74 546.034C1226.46 546.051 1226.35 546.01 1226.35 546.009C1226.34 546.007 1226.35 546.011 1226.38 546.026C1226.4 546.041 1226.42 546.061 1226.44 546.083C1226.49 546.131 1226.5 546.162 1226.49 546.145C1226.47 546.09 1226.44 545.865 1226.57 545.549C1226.73 545.149 1227.39 544.156 1229.7 544.481C1232.29 544.846 1236.79 546.94 1243.2 553.594L1248.24 548.736C1241.4 541.635 1235.54 538.234 1230.67 537.55C1225.52 536.826 1221.61 539.231 1220.1 542.863C1218.77 546.075 1219.44 550.946 1223.96 552.588C1226 553.332 1228.29 553.111 1230.54 552.255C1232.8 551.397 1235.26 549.824 1237.92 547.477L1233.28 542.229ZM1243.2 553.594C1252.83 563.584 1253.77 574.238 1251.21 583.606C1248.58 593.198 1242.23 601.421 1237.46 605.671L1242.11 610.9C1247.67 605.956 1254.9 596.623 1257.96 585.456C1261.08 574.065 1259.83 560.755 1248.24 548.736L1243.2 553.594Z" fill="#6D764C"/>
<path d="M78.4483 265.368C92.2062 298.261 143.548 277.859 119.194 296.55C94.8391 315.241 23.087 283.302 65.3205 312.972C107.554 342.643 139.436 327.393 119.554 342.549C99.6716 357.705 56.5908 347.542 69.243 366.943C81.8953 386.345 91.3441 379.771 82.4539 393.841C75.3418 405.097 77.5976 412.212 79.6145 414.363" stroke="#6D764C" stroke-width="7" stroke-linecap="round"/>
<path d="M808.85 773.736C839.757 765.451 816.441 739.793 836.231 751.633C856.021 763.472 830.054 801.552 855.867 778.738C881.681 755.924 864.702 740.087 880.759 749.756C896.815 759.425 889.955 781.957 907.87 774.736C925.786 767.515 918.764 762.897 933.007 766.952C944.402 770.196 951.138 768.774 953.082 767.658" stroke="#6D764C" stroke-width="7" stroke-linecap="round"/>
<path d="M417.521 773.221C448.428 764.935 425.111 739.277 444.901 751.117C464.691 762.956 438.725 801.036 464.538 778.223C490.351 755.409 473.373 739.571 489.429 749.24C505.486 758.909 498.625 781.441 516.541 774.22C534.456 766.999 527.435 762.381 541.678 766.436C553.073 769.68 559.809 768.258 561.752 767.142" stroke="#6D764C" stroke-width="7" stroke-linecap="round"/>
<path d="M1233.45 153.368C1247.21 186.261 1298.55 165.859 1274.19 184.55C1249.84 203.241 1178.09 171.302 1220.32 200.972C1262.55 230.643 1294.44 215.393 1274.55 230.549C1254.67 245.705 1211.59 235.542 1224.24 254.943C1236.9 274.345 1246.34 267.771 1237.45 281.841C1230.34 293.097 1232.6 300.212 1234.61 302.363" stroke="#6D764C" stroke-width="7" stroke-linecap="round"/>
<path d="M1046 50.0788C1079.89 36.8482 1059.35 -13.624 1078.35 10.387C1097.34 34.3981 1063.97 104.471 1094.78 63.3093C1125.58 22.1475 1110.18 -9.21383 1125.58 10.387C1140.98 29.9879 1130.2 72.1297 1150.22 59.8792C1170.25 47.6287 1163.57 38.3182 1177.95 47.1386C1189.45 54.1949 1196.78 52.0388 1199 50.0788" stroke="#6D764C" stroke-width="7" stroke-linecap="round"/>
<path d="M1197.5 747.5C1190.58 736 1173.08 720.625 1203.5 711.5C1213.5 708.5 1275.93 727.574 1234.98 697C1194.04 666.426 1224 682 1218 663.5C1210.36 639.938 1259.66 676.129 1247.54 656.349C1235.43 636.569 1226.08 643.076 1234.98 628.988C1242.11 617.718 1240 610.498 1238.06 608.296" stroke="#6D764C" stroke-width="7" stroke-linecap="round"/>
<path d="M750 53.1195C772.691 74.3776 792.916 76.9701 798.836 59.3414C804.755 41.7127 805.742 13.1956 795.876 28.2319C786.01 43.2681 797.356 54.6749 811.168 59.3414C824.98 64.0078 843.232 39.1202 859.017 51.0455C874.802 62.9708 894.534 53.1195 897 53.1195" stroke="#6D764C" stroke-width="7" stroke-linecap="round"/>
<path d="M79.5 414.5C54.9917 437.787 46.4285 458.917 66.9067 464.828C87.3848 470.738 120.458 471.542 102.961 461.589C85.4643 451.637 72.3084 463.286 66.9836 477.402C61.6587 491.518 90.6308 509.951 76.9013 526.13C63.1718 542.31 74.7179 562.358 74.7333 564.873" stroke="#6D764C" stroke-width="7" stroke-linecap="round"/>
<path d="M1199.8 49.2931C1251.12 49.1822 1266.61 52.3635 1259.88 69.1408C1253.15 85.918 1236.6 71.2577 1244.93 86.395C1253.27 101.532 1270.8 106.317 1258.15 121.27C1245.5 136.223 1236.71 120.857 1235.49 132.341C1234.28 143.825 1235.14 151.171 1233.07 153.012" stroke="#6D764C" stroke-width="7" stroke-linecap="round"/>
<path d="M1197.65 748.097C1201.78 773.948 1200 781.897 1183.68 779.276C1167.35 776.656 1179.86 767.645 1166.26 772.539C1152.66 777.433 1149.53 786.485 1134.45 780.799C1119.38 775.114 1133.16 769.98 1122.25 769.893C1111.34 769.805 1101.85 770.486 1099.95 769.53" stroke="#6D764C" stroke-width="7" stroke-linecap="round"/>
<path d="M125.559 771.066C78.0523 777.119 62.9857 777.379 65.4105 768.414C67.8354 759.449 86.4908 764.661 75.3351 758.256C64.1795 751.851 46.8579 751.568 55.1777 742.8C63.4975 734.033 75.1261 740.496 73.6488 734.755C72.1715 729.014 67.7326 720.284 69.1891 718.479" stroke="#6D764C" stroke-width="7" stroke-linecap="round"/>
</svg>
