<svg width="122" height="111" viewBox="0 0 122 111" fill="none" xmlns="http://www.w3.org/2000/svg">
<path d="M3 96.8942C3.68443 95.5642 4.9295 94.0243 6.54985 92.5M111.786 3C106.494 3.76287 99.3969 3.67941 93.5 9.67704M119 15.1154C118.361 17.6511 117.061 21.1304 114.738 24.5M20.9525 108C22.2574 106.668 23.2803 104.965 24.089 103M6.54985 92.5C9.84946 89.3959 14.7052 86.3561 19.5518 85.2837C25.1673 84.041 38.5356 86.6802 50.5 87.0671M6.54985 92.5C8.6999 92.8333 12.5917 94.7958 15 96C19 98 22.0593 101.167 24.089 103M24.089 103C27.9563 93.6021 26.9232 78.1949 28.3878 68.5M28.3878 68.5C28.5895 67.1655 28.8384 65.9392 29.154 64.8517C32.3248 53.9246 38.1776 48.0202 46.5 45.0152M28.3878 68.5C34.7586 75.0447 48.1 87.9208 50.5 87.0671M50.5 87.0671C57.436 87.2914 63.9003 86.7587 68.1087 84.274C69.1358 83.6676 70.0982 82.9875 71 82.244M35 55.5C35.5 56 66 84.9879 71 82.244M71 82.244C79.241 75.4496 82.4115 63.3691 83.4856 54M46.5 45.0152C48.1227 44.4293 49.8393 43.9536 51.6483 43.5724C55.2204 42.8196 61.2648 41.8115 68.1087 40.6487M46.5 45.0152C55.1667 52.8435 73.4 68.5 77 68.5M68.1087 40.6487C71.5628 45.4325 79.4741 54.8 83.4856 54M68.1087 40.6487C79.6352 38.6903 93.4296 36.2931 101.5 33.9379M83.4856 54C83.6063 52.9476 83.7005 51.9294 83.7724 50.9567C84.6052 39.702 81.7247 34.871 86.259 22.5M86.259 22.5C86.8091 20.9991 87.4683 19.3872 88.2566 17.6394C89.811 14.1929 91.5927 11.6169 93.5 9.67704M86.259 22.5C90.506 26.5774 99.5 34.5734 101.5 33.9379M101.5 33.9379C104.002 33.2078 105.953 32.4817 107.117 31.774C110.418 29.7665 112.898 27.1676 114.738 24.5M93.5 9.67704C99.1584 15.9514 111.328 27.7 114.738 24.5" stroke="url(#paint0_linear_79_2)" stroke-width="6" stroke-linecap="round" stroke-linejoin="round"/>
<defs>
<linearGradient id="paint0_linear_79_2" x1="40.3514" y1="85.7885" x2="134.946" y2="4.31684" gradientUnits="userSpaceOnUse">
<stop stop-color="#444A30"/>
<stop offset="1" stop-color="#8C5252"/>
</linearGradient>
</defs>
</svg>
