<svg width="201" height="201" viewBox="0 0 201 201" fill="none" xmlns="http://www.w3.org/2000/svg">
<rect x="0.791626" y="0.531738" width="200" height="200" rx="42" fill="#6D7452"/>
<path d="M20.5195 155.036C21.4507 153.227 23.1447 151.132 25.3493 149.058M168.528 27.2891C161.328 28.327 151.672 28.2134 143.649 36.3735M178.343 43.7726C177.474 47.2226 175.704 51.9563 172.544 56.5408M44.9447 170.146C46.72 168.333 48.1118 166.017 49.2121 163.343M25.3493 149.058C29.8385 144.834 36.445 140.699 43.039 139.24C50.6792 137.549 68.8673 141.14 85.1454 141.666M25.3493 149.058C28.2745 149.511 33.5694 152.181 36.8461 153.82C42.2882 156.541 46.4506 160.849 49.2121 163.343M49.2121 163.343C54.4737 150.557 53.0681 129.595 55.0608 116.405M55.0608 116.405C55.3351 114.589 55.6738 112.921 56.1032 111.441C60.4173 96.5742 68.3803 88.541 79.7032 84.4526M55.0608 116.405C63.7285 125.309 81.8801 142.827 85.1454 141.666M85.1454 141.666C94.5822 141.971 103.377 141.247 109.103 137.866C110.5 137.041 111.81 136.116 113.037 135.104M64.0569 98.7176C64.7372 99.3979 106.234 138.837 113.037 135.104M113.037 135.104C124.249 125.86 128.562 109.424 130.024 96.6768M79.7032 84.4526C81.911 83.6554 84.2465 83.0082 86.7076 82.4896C91.5676 81.4654 99.7913 80.0938 109.103 78.5118M79.7032 84.4526C91.4946 95.1033 116.302 116.405 121.2 116.405M109.103 78.5118C113.802 85.0203 124.566 97.7652 130.024 96.6768M109.103 78.5118C124.785 75.8473 143.553 72.5858 154.533 69.3814M130.024 96.6768C130.188 95.245 130.316 93.8597 130.414 92.5363C131.547 77.2238 127.628 70.6509 133.797 53.8197M133.797 53.8197C134.545 51.7776 135.442 49.5846 136.515 47.2066C138.63 42.5175 141.054 39.0127 143.649 36.3735M133.797 53.8197C139.575 59.3672 151.812 70.246 154.533 69.3814M154.533 69.3814C157.937 68.3881 160.592 67.4003 162.175 66.4374C166.666 63.7061 170.041 60.1702 172.544 56.5408M143.649 36.3735C151.347 44.91 167.904 60.8945 172.544 56.5408" stroke="url(#paint0_linear_145_9)" stroke-width="9" stroke-linecap="round" stroke-linejoin="round"/>
<defs>
<linearGradient id="paint0_linear_145_9" x1="71.3378" y1="139.926" x2="200.037" y2="29.0807" gradientUnits="userSpaceOnUse">
<stop stop-color="#444A30"/>
<stop offset="1" stop-color="#8C5252"/>
</linearGradient>
</defs>
</svg>
