<svg width="201" height="201" viewBox="0 0 201 201" fill="none" xmlns="http://www.w3.org/2000/svg">
<rect opacity="0.6" x="0.791626" y="0.339111" width="200" height="200" rx="42" fill="#6A5555"/>
<path d="M41.0436 47.7693C45.5436 74.7693 54.5436 69.5193 64.2936 79.2693C73.2936 85.8693 68.0436 93.5193 64.2936 96.5193" stroke="black" stroke-width="4.5"/>
<path d="M75.9321 131.314C41.4322 129.814 37.2661 129.291 29.1679 121.042C16.0333 107.661 22.3271 77.4076 23.7936 71.5416C25.2936 65.5418 34.0294 33.5193 77.5294 31.2694C121.029 29.0195 148.005 41.4858 155.044 45.5193C163.294 50.247 190.083 65.9813 185.044 98.5416C181.294 122.769 129.429 136.792 127.294 142.792C122.044 157.541 95.3436 185.392 87.5436 184.792C77.7936 184.042 83.5597 169.896 89.0436 163.042C95.0436 155.542 100.682 132.787 75.9321 131.314Z" fill="url(#paint0_linear_145_2)" stroke="#6A5555" stroke-width="7.5" stroke-linecap="round" stroke-linejoin="round"/>
<path d="M97.2936 32.7693C101.544 35.0193 109.294 40.8693 106.294 46.2693C102.544 53.0193 87.5436 52.2693 93.5436 56.7693C99.5436 61.2693 113.794 58.2693 111.544 67.2693C109.294 76.2693 107.044 84.5193 109.294 83.7693M114.544 53.7693C119.044 52.7693 128.344 52.5693 129.544 59.7693C131.044 68.7693 122.044 68.0193 129.544 71.7693C137.044 75.5193 154.294 68.0193 155.794 77.0193C157.294 86.0193 155.044 89.0193 158.794 89.7693C162.544 90.5193 170.044 81.466 170.044 86.7693C170.044 92.0193 169.294 93.5193 167.794 95.0193" stroke="#6A5555" stroke-width="4.5" stroke-linecap="round"/>
<path d="M74.7936 77.0193L75.295 74.8259L75.0475 74.7693L74.7936 74.7693L74.7936 77.0193ZM84.5436 85.2693L84.8476 87.4987L84.5436 85.2693ZM59.6902 119.674C60.8804 119.317 61.5558 118.063 61.1987 116.873C60.8417 115.683 59.5873 115.007 58.3971 115.364L59.6902 119.674ZM39.6811 50.0151C45.709 49.646 54.178 49.8868 60.2257 51.6711C63.2966 52.5771 65.324 53.7627 66.2837 55.0702C66.7262 55.6731 66.9563 56.3183 66.9666 57.0716C66.9773 57.8542 66.7509 58.8881 66.0505 60.2253L70.0368 62.3133C70.9863 60.5005 71.4897 58.7266 71.4662 57.0101C71.4423 55.2644 70.8743 53.7194 69.9114 52.4075C68.0601 49.8853 64.847 48.3427 61.4991 47.355C54.7093 45.3518 45.6283 45.1426 39.4061 45.5235L39.6811 50.0151ZM66.0505 60.2253C62.57 66.8699 62.6083 71.8911 65.3108 75.2737C67.8215 78.4163 72.0023 79.2693 74.7936 79.2693L74.7936 74.7693C72.585 74.7693 70.0908 74.0473 68.8265 72.4649C67.754 71.1225 66.9173 68.2687 70.0368 62.3133L66.0505 60.2253ZM74.2923 79.2127C78.6789 80.2154 84.1459 81.7754 86.8458 83.2071C87.5275 83.5686 87.8161 83.8127 87.8853 83.8905C87.9103 83.9186 87.7786 83.786 87.7071 83.4911C87.6198 83.1308 87.6733 82.7333 87.8508 82.4126C88.0924 81.9761 88.3292 82.0789 87.5355 82.3545C86.8802 82.582 85.8252 82.8237 84.2396 83.0399L84.8476 87.4987C86.5621 87.2649 87.9508 86.9738 89.0114 86.6056C89.9335 86.2854 91.1582 85.7297 91.788 84.5916C92.1597 83.9201 92.2574 83.1611 92.0805 82.4311C91.9194 81.7664 91.5642 81.2558 91.2479 80.9001C90.6345 80.2103 89.7692 79.6638 88.954 79.2315C85.6664 77.4882 79.6584 75.8232 75.295 74.8259L74.2923 79.2127ZM84.2396 83.0399C80.1206 83.6016 77.1069 84.0835 75.0574 84.5834C74.0421 84.831 73.1391 85.1116 72.42 85.467C71.7798 85.7833 70.7975 86.3927 70.4091 87.5578C69.9735 88.8647 70.5577 89.9545 70.9881 90.5351C71.4279 91.1282 72.0369 91.6551 72.6101 92.1037C73.7478 92.9941 75.4905 94.1286 77.2533 95.3626L79.8339 91.676C77.8468 90.285 76.402 89.357 75.3835 88.5599C74.8785 88.1648 74.6672 87.9417 74.603 87.8551C74.5296 87.756 74.9263 88.2364 74.6782 88.9808C74.4773 89.5834 74.0575 89.6772 74.4134 89.5013C74.6904 89.3645 75.2171 89.1763 76.1237 88.9552C77.9179 88.5176 80.7167 88.062 84.8476 87.4987L84.2396 83.0399ZM77.2533 95.3626C80.251 97.4609 81.7989 101.811 81.2084 104.911C80.9319 106.362 80.2476 107.277 79.29 107.718C78.2734 108.186 76.4257 108.365 73.3591 107.172L71.7281 111.366C75.4116 112.799 78.6264 112.978 81.1723 111.805C83.7771 110.606 85.1554 108.239 85.6289 105.753C86.5384 100.978 84.3363 94.8277 79.8339 91.676L77.2533 95.3626ZM73.3591 107.172C65.6093 104.158 59.3866 107.175 56.2253 110.788C55.4378 111.688 54.8096 112.657 54.3933 113.623C53.9911 114.556 53.7181 115.649 53.8594 116.732C54.0148 117.923 54.697 119.101 56.0424 119.669C57.221 120.166 58.5255 120.024 59.6902 119.674L58.3971 115.364C57.6868 115.577 57.585 115.435 57.7909 115.522C58.1637 115.679 58.3069 116.037 58.3216 116.15C58.3223 116.155 58.3071 115.912 58.526 115.404C58.7308 114.928 59.087 114.351 59.6119 113.751C61.7007 111.364 65.978 109.13 71.7281 111.366L73.3591 107.172Z" fill="#6A5555"/>
<path d="M26.7936 65.7693C37.2957 70.6702 41.5695 68.6872 44.0436 71.7693C46.8702 75.2904 41.643 80.8202 38.0436 86.0193C31.2936 95.7693 35.7936 102.519 46.2936 101.019C56.7936 99.5193 65.7936 96.5193 58.2936 84.5193C52.1228 74.6459 48.5436 83.7693 49.2936 88.2693" stroke="#6A5555" stroke-width="4.5" stroke-linecap="round"/>
<path d="M86.0436 133.269C90.2936 128.769 99.6936 119.619 109.294 125.019C121.294 131.769 131.573 127.384 134.794 123.519C138.544 119.019 136.294 109.269 124.294 115.269" stroke="#6A5555" stroke-width="4.5" stroke-linecap="round"/>
<path d="M92.0436 92.0193C92.7936 101.769 96.5436 104.019 100.294 106.269C104.044 108.519 112.294 110.769 116.044 104.019C119.794 97.2693 122.794 92.0193 127.294 92.0193C131.794 92.0193 138.544 92.7693 141.544 105.519C144.544 118.269 145.294 119.019 148.294 121.269C151.294 123.519 163.294 125.019 159.544 114.519C155.794 104.019 149.794 107.769 150.544 110.019" stroke="#6A5555" stroke-width="4.5" stroke-linecap="round"/>
<path d="M58.2936 37.2693C64.0436 37.7693 76.5936 39.9693 80.7936 44.7693C86.0436 50.7693 80.7936 61.2693 80.7936 63.5193C80.7936 65.7693 83.0436 67.2693 91.2936 71.7693C99.5436 76.2693 100.294 77.7693 99.5436 81.5193C98.7936 85.2693 102.544 93.5193 108.544 93.5193C114.544 93.5193 118.095 88.8653 119.044 86.0193C119.794 83.7693 122.044 75.5193 139.294 84.5193C156.544 93.5193 152.044 94.2693 153.544 97.2693C158.019 106.219 169.294 94.2693 169.294 92.7693M137.794 47.0193C144.544 57.5193 144.544 57.5193 149.794 59.7693C155.044 62.0193 159.544 61.2693 163.294 68.0193" stroke="#6A5555" stroke-width="4.5" stroke-linecap="round"/>
<defs>
<linearGradient id="paint0_linear_145_2" x1="103.335" y1="31" x2="104.044" y2="199.269" gradientUnits="userSpaceOnUse">
<stop stop-color="#E0DBD0"/>
<stop offset="1" stop-color="#7D5959"/>
</linearGradient>
</defs>
</svg>
