<svg width="104" height="125" viewBox="0 0 104 125" fill="none" xmlns="http://www.w3.org/2000/svg">
<path d="M37.2114 13.8394C34.2225 14.6294 28.8723 17.726 29.5896 21.897C30.4863 27.1107 34.5214 29.0066 29.5896 31.8505C24.6578 34.6943 19.2777 29.0066 16.1393 31.8505C13.0009 34.6943 4.93073 36.5902 8.06914 42.278C11.2075 47.9657 22.4161 58.3931 25.1062 56.0233C27.7962 53.6534 34.0731 56.0233 25.1062 61.237C16.1393 66.4507 10.3109 53.1794 6.72411 59.8151C3.13737 66.4507 -0.00104046 67.3987 8.06914 71.1905C16.1393 74.9823 26.0029 77.4142 29.5896 76.4662C33.1764 75.5183 34.7535 66.3394 42.4542 70.3046C49.9387 74.1584 58.1462 60.825 62.6296 64.1429C67.1131 67.4607 64.8714 74.0964 69.8031 76.4662C74.7349 78.8361 81.5974 78.7741 84.2875 74.0343C86.4395 70.2425 93.5532 68.0306 96.8411 67.3987C99.9795 64.2388 104.373 57.1608 96.8411 54.1274C87.4259 50.3355 88.7709 45.1218 79.804 47.9657C72.6306 50.2408 78.0107 40.698 81.5974 35.6423C84.8853 32.4825 90.0263 26.068 84.2875 25.6888C78.5487 25.3096 75.3206 19.8431 74.4239 17.1572C72.4811 13.5234 67.6988 6.82457 64.112 9.09965C59.6286 11.9435 60.5253 4.83387 55.1452 3.88591C49.7651 2.93796 46.8634 1.87648 47.9717 5.78182C49.3167 10.5216 39.5782 13.2139 37.2114 13.8394Z" fill="url(#paint0_linear_145_6)" stroke="#40462B" stroke-width="5" stroke-linecap="round"/>
<path d="M36.6706 80.3036C36.6706 82.3475 38.0097 83.5926 41.5809 85.4034C45.5985 86.7615 48.5003 95.9214 47.3842 101.581C45.5986 110.635 33.7566 113.086 23.4894 114.799C13.1781 116.52 10.7328 120.595 21 121.5C31.2672 122.405 34.8849 116.973 42.4738 119.236C50.0626 121.5 63.0082 121.5 68.3651 121.5C73.7219 121.5 80.4178 118.784 80.4178 116.973C80.4178 115.162 72.1471 115.712 69.9151 115.712C67.6831 115.712 63.0015 116.459 57.4159 114.799C53.3982 113.606 52.741 114.257 53.1874 105.655C53.6338 97.0537 52.2946 92.5266 52.741 89.8104C53.1874 87.0941 55.089 84.9672 58.5 81.5C62.0629 77.8783 61.7154 74.3508 58.9906 73.633C57.2091 73.1637 53.2471 78.3133 46.551 79.6715C43.5229 80.2856 41.7483 79.5354 40.2418 78.4927C38.9269 77.6901 40.5506 78.8059 40.2418 78.4927C38.4562 76.6819 36.6706 78.4927 36.6706 80.3036Z" fill="#574646"/>
<path d="M45.1807 79.9153C44.5133 81.0001 40.8275 78.8503 40.2418 78.4927M40.2418 78.4927C38.4562 76.6819 36.6706 78.4927 36.6706 80.3036C36.6706 82.3475 38.0097 83.5926 41.5809 85.4034C45.5985 86.7615 48.5003 95.9214 47.3842 101.581C45.5986 110.635 33.7566 113.086 23.4894 114.799C13.1781 116.52 10.7328 120.595 21 121.5C31.2672 122.405 34.8849 116.973 42.4738 119.236C50.0626 121.5 63.0082 121.5 68.3651 121.5C73.7219 121.5 80.4178 118.784 80.4178 116.973C80.4178 115.162 72.1471 115.712 69.9151 115.712C67.6831 115.712 63.0015 116.459 57.4159 114.799C53.3982 113.606 52.741 114.257 53.1874 105.655C53.6338 97.0537 52.2946 92.5266 52.741 89.8104C53.1874 87.0941 55.089 84.9672 58.5 81.5C62.0629 77.8783 61.7154 74.3508 58.9906 73.633C57.2091 73.1637 53.2471 78.3133 46.551 79.6715C43.5229 80.2856 41.7483 79.5354 40.2418 78.4927ZM40.2418 78.4927C38.9269 77.6901 40.5506 78.8059 40.2418 78.4927ZM40.2418 78.4927C39.0832 77.6909 40.5005 78.5979 40.2418 78.4927Z" stroke="#483939" stroke-width="5"/>
<defs>
<linearGradient id="paint0_linear_145_6" x1="50.9727" y1="68.4087" x2="50.9727" y2="-27.8084" gradientUnits="userSpaceOnUse">
<stop stop-color="#444A2F"/>
<stop offset="1" stop-color="#A2B06F"/>
</linearGradient>
</defs>
</svg>
